<?xml version="1.0" encoding="UTF-8"?>
<svg version="1.1" xmlns="http://www.w3.org/2000/svg" width="747" height="926">
<path d="M0 0 C246.51 0 493.02 0 747 0 C747 305.58 747 611.16 747 926 C500.49 926 253.98 926 0 926 C0 620.42 0 314.84 0 0 Z " fill="#FEFEFE" transform="translate(0,0)"/>
<path d="M0 0 C2.36925295 -0.00971304 4.73763788 -0.04087771 7.10668945 -0.07226562 C21.96777555 -0.17666749 35.82240205 2.19866448 50.06958008 6.49023438 C51.59711914 6.94692505 51.59711914 6.94692505 53.15551758 7.4128418 C70.58203148 12.74202997 85.28199674 20.16258676 100.06958008 30.80273438 C104.16983021 33.752158 108.45492795 36.1438275 112.88208008 38.55273438 C125.30255179 45.41591218 134.71617717 52.90175952 142.87670898 64.56347656 C144.03882203 66.19699936 145.2626689 67.78604574 146.48754883 69.37304688 C157.14673229 83.28436462 165.52457778 99.62965479 171.06958008 116.24023438 C171.37250977 117.07554687 171.67543945 117.91085938 171.98754883 118.77148438 C174.49276939 125.8284437 175.2170234 132.31835308 174.81567383 139.82617188 C174.76406404 141.26617904 174.71532472 142.70629142 174.66918945 144.14648438 C174.59538018 146.38283183 174.50720168 148.61325324 174.37011719 150.84667969 C173.68083472 159.98346519 173.68083472 159.98346519 177.20605469 168.13916016 C179.72343203 170.38681027 182.31729421 172.29444216 185.06958008 174.24023438 C186.34058963 175.57665138 187.578719 176.94645291 188.75708008 178.36523438 C190.86860924 180.88528783 193.02094419 183.14680336 195.44458008 185.36523438 C212.59160326 202.35847259 219.35446929 226.62448592 219.50708008 249.99023438 C219.51731201 251.19760254 219.52754395 252.4049707 219.53808594 253.64892578 C219.45778543 261.8732699 218.24704557 269.31947563 216.06958008 277.24023438 C215.87630127 277.97081055 215.68302246 278.70138672 215.48388672 279.45410156 C211.44123801 294.07523594 203.36278088 309.40846393 190.42114258 317.99804688 C186.08451584 320.27705492 182.00488865 321.85060475 177.06958008 322.24023438 C176.96774414 323.20058594 176.8659082 324.1609375 176.76098633 325.15039062 C176.08204428 329.85575422 174.58858624 334.20782798 173.00708008 338.67773438 C172.69762451 339.55300781 172.38816895 340.42828125 172.06933594 341.33007812 C159.92427392 374.76164668 137.08651108 397.85406924 106.03442383 414.45898438 C105.44137451 414.77802734 104.8483252 415.09707031 104.23730469 415.42578125 C102.06958008 416.24023438 102.06958008 416.24023438 95.06958008 417.24023438 C95.39958008 424.17023438 95.72958008 431.10023438 96.06958008 438.24023438 C105.63124899 442.36487587 115.53400203 445.18083552 125.50708008 448.11523438 C128.94398041 449.13110211 132.38007371 450.14966597 135.81567383 451.16992188 C137.08873383 451.54779594 137.08873383 451.54779594 138.38751221 451.93330383 C150.96941177 455.68258789 163.49085654 459.64726758 175.94458008 463.80273438 C176.82114258 464.09519043 177.69770508 464.38764648 178.60083008 464.68896484 C184.51048954 466.67737349 190.34670772 468.78577291 196.14379883 471.08398438 C198.05321723 471.83857429 199.97241754 472.56899174 201.90161133 473.27148438 C210.78821013 476.53262155 219.30089744 480.51376725 227.84423828 484.58251953 C228.84801514 485.05351074 229.85179199 485.52450195 230.88598633 486.00976562 C232.23865601 486.65328979 232.23865601 486.65328979 233.61865234 487.30981445 C236.25591638 488.47683896 236.25591638 488.47683896 240.06958008 488.24023438 C242.98483443 489.21198583 243.87763202 489.89024526 245.37426758 492.61914062 C247.32988465 495.64268684 249.02399869 496.71929879 252.13208008 498.49023438 C283.71295669 517.79659373 298.36022127 556.42740583 306.67163086 590.72460938 C312.36918929 615.44892245 313.61347053 640.18385478 313.57055664 665.44848633 C313.56457076 669.53797743 313.59572835 673.62631776 313.63567352 677.71558475 C313.66156026 680.90964512 313.66442922 684.10342421 313.66078186 687.297575 C313.66246076 688.80655334 313.67198312 690.31554642 313.68992615 691.82441902 C313.83838823 705.79927135 313.83838823 705.79927135 309.6307373 711.74754333 C305.79006876 715.41977534 302.59037539 716.61605026 297.31713867 716.59667969 C296.18601654 716.59968079 295.05489441 716.60268188 293.88949585 716.60577393 C292.67790802 716.59342712 291.46632019 716.58108032 290.21801758 716.56835938 C288.96703278 716.56648621 287.71604797 716.56461304 286.42715454 716.56268311 C283.78584138 716.55596635 281.14530369 716.54371447 278.50415039 716.52148438 C275.12023742 716.49314493 271.73656518 716.4822655 268.35254478 716.47780228 C265.1201726 716.47264637 261.88785828 716.45811 258.65551758 716.44335938 C257.43988129 716.4391095 256.224245 716.43485962 254.97177124 716.43048096 C253.28454453 716.41606964 253.28454453 716.41606964 251.56323242 716.40136719 C250.5723764 716.39453918 249.58152039 716.38771118 248.56063843 716.38067627 C246.06958008 716.24023438 246.06958008 716.24023438 243.06958008 715.24023438 C241.06735697 715.55994319 239.06770816 715.89585769 237.06958008 716.24023438 C234.41040898 716.33017861 231.77843357 716.37465952 229.1200037 716.36607552 C228.33346079 716.36752896 227.54691789 716.3689824 226.73654035 716.37047988 C224.09696956 716.37413365 221.45745674 716.37065632 218.81788635 716.36721802 C216.907914 716.36837008 214.99794187 716.36995818 213.0879702 716.37194526 C207.83610592 716.37612689 202.58425978 716.37405312 197.33239543 716.37095904 C191.66973616 716.36870043 186.00708004 716.37218688 180.34442139 716.37493896 C169.24963391 716.37939076 158.1548532 716.37842278 147.06006546 716.37552632 C138.04424878 716.37326987 129.02843399 716.37296082 120.01261711 716.37405014 C118.73045886 716.37420337 117.4483006 716.37435661 116.12728907 716.37451448 C113.52276739 716.3748342 110.91824571 716.37515842 108.31372403 716.37548707 C84.57485807 716.3782588 60.83599621 716.37538208 37.0971309 716.37014448 C15.42575456 716.36539939 -6.2456159 716.36582296 -27.91699219 716.37060547 C-52.26251732 716.37596015 -76.60803846 716.37806493 -100.95356423 716.37499321 C-103.54892321 716.37467465 -106.1442822 716.37436028 -108.73964119 716.37405014 C-110.01666933 716.37389586 -111.29369747 716.37374159 -112.60942344 716.37358264 C-121.6156127 716.37271863 -130.62179988 716.37417788 -139.62798882 716.37652969 C-150.6018628 716.37933228 -161.57572963 716.37857972 -172.5496028 716.37324895 C-178.15037766 716.37061808 -183.75114058 716.36959652 -189.35191536 716.3728981 C-194.47710525 716.37587367 -199.60227212 716.37424711 -204.72745991 716.36892055 C-206.58338184 716.36780176 -208.4393057 716.36837566 -210.29522639 716.37079634 C-212.81517949 716.37383145 -215.33505345 716.3707235 -217.8550024 716.36607552 C-218.57771016 716.36841668 -219.30041792 716.37075785 -220.04502591 716.37316996 C-223.39519419 716.360797 -226.55175444 716.15033881 -229.87263352 715.6698693 C-230.88170303 715.52808978 -231.89077254 715.38631025 -232.93041992 715.24023438 C-233.26041992 715.57023438 -233.59041992 715.90023437 -233.93041992 716.24023438 C-235.9227123 716.36585422 -237.91947403 716.42103863 -239.91552734 716.44897461 C-241.19743454 716.46826523 -242.47934174 716.48755585 -243.8000946 716.50743103 C-245.21201573 716.52223985 -246.62394804 716.53601301 -248.03588867 716.54882812 C-248.74459925 716.55539995 -249.45330982 716.56197178 -250.18349648 716.56874275 C-253.93806588 716.60137247 -257.69260656 716.625809 -261.44726562 716.64526367 C-264.55250567 716.66305013 -267.65683293 716.69781893 -270.76171875 716.74780273 C-274.51069474 716.80808917 -278.25882689 716.83875128 -282.00826454 716.84843636 C-283.43523275 716.85698227 -284.86217896 716.87577979 -286.28886986 716.90517998 C-298.85566356 717.15010656 -298.85566356 717.15010656 -302.72851562 713.57641602 C-306.0355034 708.56588403 -307.17610331 704.2275972 -307.22094727 698.25878906 C-307.23351059 697.09195084 -307.24607391 695.92511261 -307.25901794 694.72291565 C-307.26143997 693.46534958 -307.263862 692.20778351 -307.26635742 690.91210938 C-307.27446754 689.57766984 -307.2829859 688.24323273 -307.29188538 686.90879822 C-307.31504685 682.6025566 -307.31196838 678.29651828 -307.30541992 673.99023438 C-307.30503345 673.25838047 -307.30464699 672.52652657 -307.30424881 671.77249527 C-307.26517276 613.22060452 -302.12259037 560.83612507 -262.93041992 514.24023438 C-262.19694336 513.3559375 -261.4634668 512.47164062 -260.70776367 511.56054688 C-255.35923859 505.35361653 -249.4184381 500.22493127 -242.93041992 495.24023438 C-242.29104492 494.73492188 -241.65166992 494.22960937 -240.99291992 493.70898438 C-237.31798653 490.91875717 -233.53528642 489.0477159 -229.28979492 487.25976562 C-226.9261963 486.23840927 -224.65658715 485.1066284 -222.36791992 483.92773438 C-197.84892658 471.57349662 -171.36835858 463.04873532 -145.20581055 454.94921875 C-142.95952956 454.24930459 -140.71785423 453.53636126 -138.47729492 452.81835938 C-128.9278067 449.7610786 -119.34460708 446.81677191 -109.74291992 443.92773438 C-108.59629883 443.57791504 -107.44967773 443.2280957 -106.26831055 442.86767578 C-105.17325195 442.5407373 -104.07819336 442.21379883 -102.94995117 441.87695312 C-101.98162354 441.58522217 -101.0132959 441.29349121 -100.015625 440.99291992 C-96.3812503 440.10625559 -92.64250124 439.70424454 -88.93041992 439.24023438 C-88.93041992 431.98023438 -88.93041992 424.72023438 -88.93041992 417.24023438 C-90.58041992 416.91023438 -92.23041992 416.58023437 -93.93041992 416.24023438 C-110.58544081 409.24979968 -124.1842495 396.9830098 -137.18432617 384.77539062 C-139.22918971 382.88760053 -141.28583466 381.11906197 -143.43041992 379.35351562 C-155.6028332 368.96429046 -164.73118898 352.64964791 -167.54467773 337.04077148 C-168.78600334 328.23303732 -168.78600334 328.23303732 -173.96166992 321.47851562 C-176.32614457 320.08644682 -178.78261659 318.98391504 -181.29760742 317.89257812 C-197.06886337 310.71920042 -207.42811174 291.80483114 -213.48510742 276.36914062 C-221.00139577 255.89781146 -220.40407562 230.13209229 -211.50463867 210.27539062 C-203.09442318 194.06016126 -191.70841444 180.61734459 -177.38354492 169.35351562 C-174.8929508 167.37294423 -174.8929508 167.37294423 -173.28979492 164.97070312 C-172.84120117 164.39964844 -172.39260742 163.82859375 -171.93041992 163.24023438 C-170.94041992 163.24023438 -169.95041992 163.24023438 -168.93041992 163.24023438 C-169.92041992 154.33023438 -169.92041992 154.33023438 -170.93041992 145.24023438 C-172.25041992 145.57023438 -173.57041992 145.90023437 -174.93041992 146.24023438 C-176.93041992 144.24023438 -176.93041992 144.24023438 -177.1574707 142.08544922 C-177.14699707 141.2161377 -177.13652344 140.34682617 -177.12573242 139.45117188 C-177.11606445 138.03964844 -177.11606445 138.03964844 -177.10620117 136.59960938 C-177.08106445 135.12234375 -177.08106445 135.12234375 -177.05541992 133.61523438 C-177.04639648 132.62265625 -177.03737305 131.63007813 -177.02807617 130.60742188 C-177.00446109 128.15145303 -176.97152792 125.69596269 -176.93041992 123.24023438 C-177.82349854 123.25594482 -178.71657715 123.27165527 -179.63671875 123.2878418 C-182.95220749 123.33898876 -186.26727668 123.37659249 -189.58300781 123.4050293 C-191.01764544 123.42011026 -192.45223701 123.44057818 -193.88671875 123.46655273 C-195.94957851 123.50296874 -198.0118285 123.51996681 -200.07495117 123.53320312 C-201.31607666 123.54891357 -202.55720215 123.56462402 -203.8359375 123.58081055 C-206.93041992 123.24023438 -206.93041992 123.24023438 -208.92138672 122.03442383 C-209.93041992 120.24023438 -209.93041992 120.24023438 -209.61791992 117.55273438 C-209.39104492 116.78960937 -209.16416992 116.02648437 -208.93041992 115.24023438 C-204.1982223 115.14096284 -199.46663779 115.06857805 -194.73364258 115.02050781 C-193.12546218 115.00045811 -191.51735409 114.97321074 -189.90942383 114.93847656 C-187.59071972 114.88966174 -185.27298367 114.86720009 -182.95385742 114.84960938 C-182.24111664 114.82896423 -181.52837585 114.80831909 -180.79403687 114.78704834 C-175.49389926 114.78469436 -172.95080046 116.06132883 -168.93041992 119.24023438 C-167.13246251 114.69802618 -165.58342211 110.1461216 -164.18676758 105.46289062 C-158.67831994 87.16104138 -148.13447085 72.95213341 -134.93041992 59.24023438 C-134.47699219 58.76634277 -134.02356445 58.29245117 -133.55639648 57.80419922 C-107.516375 30.7117921 -75.16089807 11.34734999 -38.49291992 2.86523438 C-37.50316162 2.63175293 -37.50316162 2.63175293 -36.4934082 2.39355469 C-24.5735459 -0.15424665 -12.13970698 0.02991611 0 0 Z " fill="#FAB866" transform="translate(371.930419921875,132.759765625)"/>
<path d="M0 0 C1.03318588 1.54977882 2.06070344 3.10689611 2.98046875 4.7265625 C11.31075711 17.82856944 30.33393116 24.13064171 44.71777344 27.66845703 C59.82605764 31.02673985 74.63470574 32.20376148 90.07641602 32.24023438 C92.53371748 32.24988694 94.99016103 32.28098288 97.44726562 32.3125 C112.26688054 32.41008596 126.86110068 30.63360301 141 26 C141.67611328 25.7839209 142.35222656 25.5678418 143.04882812 25.34521484 C158.95711091 20.18217962 173.62160792 13.5945204 184 0 C185.02963867 0.35336426 186.05927734 0.70672852 187.12011719 1.07080078 C195.78479012 4.01633547 204.48431224 6.78917211 213.265625 9.3671875 C214.72856995 9.79707977 214.72856995 9.79707977 216.22106934 10.23565674 C220.22872646 11.41050081 224.23750272 12.58135765 228.24853516 13.74462891 C240.99737 17.44872448 253.5208471 21.49343841 265.9543457 26.15258789 C271.23121687 28.11779075 276.57586367 29.84540447 281.9375 31.5625 C289.96565431 34.19554664 297.45097637 37.32208537 305.03125 41.046875 C308.88520344 42.91267785 312.78485613 44.67644124 316.6875 46.4375 C317.45473389 46.79191162 318.22196777 47.14632324 319.01245117 47.51147461 C320.09490112 47.99886108 320.09490112 47.99886108 321.19921875 48.49609375 C321.83690186 48.78669678 322.47458496 49.0772998 323.1315918 49.37670898 C325.30413433 50.21096725 325.30413433 50.21096725 329 50 C331.91525435 50.97175145 332.80805194 51.65001088 334.3046875 54.37890625 C336.26030458 57.40245247 337.95441861 58.47906442 341.0625 60.25 C372.64337661 79.55635935 387.2906412 118.18717145 395.60205078 152.484375 C401.29960922 177.20868807 402.54389045 201.94362041 402.50097656 227.20825195 C402.49499068 231.29774306 402.52614827 235.38608339 402.56609344 239.47535038 C402.59198019 242.66941074 402.59484915 245.86318984 402.59120178 249.05734062 C402.59288068 250.56631897 402.60240305 252.07531205 402.62034607 253.58418465 C402.76880815 267.55903698 402.76880815 267.55903698 398.56115723 273.50730896 C394.72048868 277.17954096 391.52079531 278.37581588 386.24755859 278.35644531 C385.11643646 278.35944641 383.98531433 278.36244751 382.81991577 278.36553955 C381.00253403 278.34701935 381.00253403 278.34701935 379.1484375 278.328125 C377.8974527 278.32625183 376.6464679 278.32437866 375.35757446 278.32244873 C372.7162613 278.31573197 370.07572361 278.3034801 367.43457031 278.28125 C364.05065734 278.25291056 360.6669851 278.24203112 357.28296471 278.2375679 C354.05059252 278.232412 350.8182782 278.21787562 347.5859375 278.203125 C346.37030121 278.19887512 345.15466492 278.19462524 343.90219116 278.19024658 C342.21496445 278.17583527 342.21496445 278.17583527 340.49365234 278.16113281 C339.50279633 278.15430481 338.51194031 278.14747681 337.49105835 278.14044189 C335 278 335 278 332 277 C329.99777689 277.31970881 327.99812808 277.65562332 326 278 C323.3408289 278.08994424 320.70885349 278.13442515 318.05042362 278.12584114 C317.26388072 278.12729458 316.47733781 278.12874802 315.66696027 278.13024551 C313.02738948 278.13389928 310.38787666 278.13042194 307.74830627 278.12698364 C305.83833392 278.12813571 303.92836179 278.12972381 302.01839012 278.13171089 C296.76652585 278.13589251 291.5146797 278.13381875 286.26281536 278.13072467 C280.60015608 278.12846605 274.93749996 278.1319525 269.27484131 278.13470459 C258.18005384 278.13915639 247.08527312 278.1381884 235.99048538 278.13529195 C226.9746687 278.1330355 217.95885391 278.13272645 208.94303703 278.13381577 C207.66087878 278.133969 206.37872052 278.13412223 205.05770899 278.13428011 C202.45318731 278.13459983 199.84866563 278.13492404 197.24414396 278.1352527 C173.505278 278.13802442 149.76641613 278.13514771 126.02755083 278.1299101 C104.35617449 278.12516501 82.68480402 278.12558859 61.01342773 278.13037109 C36.6679026 278.13572577 12.32238147 278.13783055 -12.0231443 278.13475883 C-14.61850329 278.13444027 -17.21386228 278.1341259 -19.80922127 278.13381577 C-21.08624941 278.13366149 -22.36327755 278.13350721 -23.67900352 278.13334826 C-32.68519278 278.13248426 -41.69137996 278.13394351 -50.69756889 278.13629532 C-61.67144288 278.1390979 -72.64530971 278.13834535 -83.61918288 278.13301457 C-89.21995774 278.1303837 -94.82072066 278.12936215 -100.42149544 278.13266373 C-105.54668533 278.13563929 -110.6718522 278.13401274 -115.79703999 278.12868617 C-117.65296192 278.12756739 -119.50888578 278.12814129 -121.36480647 278.13056196 C-123.88475956 278.13359708 -126.40463353 278.13048913 -128.92458248 278.12584114 C-129.64729024 278.12818231 -130.369998 278.13052347 -131.11460599 278.13293558 C-134.46477427 278.12056262 -137.62133452 277.91010444 -140.94221359 277.42963493 C-141.95128311 277.2878554 -142.96035262 277.14607588 -144 277 C-144.33 277.33 -144.66 277.66 -145 278 C-146.99229238 278.12561985 -148.98905411 278.18080426 -150.98510742 278.20874023 C-152.26701462 278.22803085 -153.54892181 278.24732147 -154.86967468 278.26719666 C-156.28159581 278.28200547 -157.69352812 278.29577864 -159.10546875 278.30859375 C-160.16853461 278.31845149 -160.16853461 278.31845149 -161.25307655 278.32850838 C-165.00764596 278.3611381 -168.76218664 278.38557463 -172.5168457 278.4050293 C-175.62208575 278.42281576 -178.72641301 278.45758456 -181.83129883 278.50756836 C-185.58027482 278.56785479 -189.32840697 278.59851691 -193.07784462 278.60820198 C-194.50481283 278.6167479 -195.93175903 278.63554542 -197.35844994 278.6649456 C-209.92524363 278.90987219 -209.92524363 278.90987219 -213.7980957 275.33618164 C-217.10508348 270.32564966 -218.24568338 265.98736283 -218.29052734 260.01855469 C-218.30309067 258.85171646 -218.31565399 257.68487823 -218.32859802 256.48268127 C-218.33102005 255.2251152 -218.33344208 253.96754913 -218.3359375 252.671875 C-218.34404762 251.33743546 -218.35256598 250.00299835 -218.36146545 248.66856384 C-218.38462693 244.36232223 -218.38154846 240.0562839 -218.375 235.75 C-218.37461353 235.0181461 -218.37422707 234.28629219 -218.37382889 233.53226089 C-218.33475284 174.98037014 -213.19217045 122.59589069 -174 76 C-173.26652344 75.11570312 -172.53304687 74.23140625 -171.77734375 73.3203125 C-166.42881867 67.11338216 -160.48801818 61.98469689 -154 57 C-153.360625 56.4946875 -152.72125 55.989375 -152.0625 55.46875 C-148.38756661 52.6785228 -144.60486649 50.80748153 -140.359375 49.01953125 C-137.99577638 47.99817489 -135.72616723 46.86639403 -133.4375 45.6875 C-108.91850666 33.33326224 -82.43793866 24.80850094 -56.27539062 16.70898438 C-54.02910964 16.00907021 -51.78743431 15.29612689 -49.546875 14.578125 C-40.00169489 11.52325482 -30.41957256 8.60444388 -20.8125 5.75 C-19.66587891 5.40855957 -18.51925781 5.06711914 -17.33789062 4.71533203 C-11.58430133 3.01448434 -5.83519196 1.39645619 0 0 Z " fill="#FAB866" transform="translate(283,571)"/>
<path d="M0 0 C2.7990105 1.06169364 3.84064354 1.71287548 5.3203125 4.37890625 C7.26397229 7.41191956 8.95337302 8.47846865 12.0625 10.25 C43.64337661 29.55635935 58.2906412 68.18717145 66.60205078 102.484375 C72.29960922 127.20868807 73.54389045 151.94362041 73.50097656 177.20825195 C73.49499068 181.29774306 73.52614827 185.38608339 73.56609344 189.47535038 C73.59198019 192.66941074 73.59484915 195.86318984 73.59120178 199.05734062 C73.59288068 200.56631897 73.60240305 202.07531205 73.62034607 203.58418465 C73.76880815 217.55903698 73.76880815 217.55903698 69.56115723 223.50730896 C65.74727774 227.15392676 62.54860872 228.37567708 57.31103516 228.37231445 C55.63371811 228.38165764 55.63371811 228.38165764 53.92251587 228.39118958 C52.72347626 228.38197983 51.52443665 228.37277008 50.2890625 228.36328125 C49.04756439 228.36377975 47.80606628 228.36427826 46.52694702 228.36479187 C43.2316786 228.36185491 39.93684362 228.34485512 36.6416626 228.3225708 C34.62984603 228.3125242 32.61828124 228.31218435 30.60644531 228.31567383 C26.72970391 228.32210489 22.85328172 228.31414145 18.9765625 228.30078125 C17.78157135 228.30169266 16.5865802 228.30260406 15.3553772 228.30354309 C14.23086151 228.29401108 13.10634583 228.28447906 11.94775391 228.2746582 C10.96578033 228.27005081 9.98380676 228.26544342 8.97207642 228.26069641 C5.47346403 227.95381477 2.36033452 226.99738631 -1 226 C-1.0227902 197.35335355 -1.04049809 168.70670824 -1.05106533 140.06005451 C-1.0523161 136.68155651 -1.05361042 133.30305852 -1.05493164 129.92456055 C-1.05519395 129.25193453 -1.05545626 128.57930852 -1.05572652 127.8862999 C-1.06008324 116.98117581 -1.0679708 106.07605697 -1.0771528 95.170936 C-1.08648928 83.98945918 -1.0919807 72.80798417 -1.09408849 61.62650341 C-1.09539602 55.34260126 -1.09848453 49.05871104 -1.10573006 42.7748127 C-1.11248637 36.86768149 -1.11461776 30.96056717 -1.11310768 25.05343246 C-1.11338419 22.87851177 -1.1153916 20.70359054 -1.11920547 18.52867317 C-1.12413666 15.5731358 -1.12300043 12.61766332 -1.12025452 9.66212463 C-1.12316736 8.78957411 -1.1260802 7.91702358 -1.12908131 7.01803213 C-1.11412121 1.11412121 -1.11412121 1.11412121 0 0 Z " fill="#FAB766" transform="translate(612,621)"/>
<path d="M0 0 C0.20537903 3.49911695 0.32829941 6.99666666 0.4375 10.5 C0.52547852 11.97339844 0.52547852 11.97339844 0.61523438 13.4765625 C0.74267251 18.938197 0.38187939 22.26403072 -3.2421875 26.49609375 C-22.66643231 45.62837379 -53.77771771 54.12772117 -80.53125 54.16796875 C-81.72252502 54.17296135 -81.72252502 54.17296135 -82.93786621 54.17805481 C-84.61189196 54.18308804 -86.28592763 54.18546426 -87.95996094 54.18530273 C-90.46567266 54.18747031 -92.97092948 54.20561235 -95.4765625 54.22460938 C-123.64420783 54.32444777 -154.22275402 49.88792609 -177 32 C-180.7528303 28.22168359 -183.826294 24.33029895 -184.11352539 18.82348633 C-184.10828857 18.00130615 -184.10305176 17.17912598 -184.09765625 16.33203125 C-184.09443359 15.43935547 -184.09121094 14.54667969 -184.08789062 13.62695312 C-184.07951172 12.69818359 -184.07113281 11.76941406 -184.0625 10.8125 C-184.05798828 9.87212891 -184.05347656 8.93175781 -184.04882812 7.96289062 C-184.03704626 5.64186288 -184.02059558 3.32096356 -184 1 C-179.72975762 1.66873607 -176.09505775 3.12629268 -172.125 4.8125 C-156.03890548 11.37948973 -139.04892563 14.06727197 -122 17 C-120.95489258 17.19053955 -119.90978516 17.3810791 -118.83300781 17.57739258 C-110.22730493 19.05388721 -101.71231991 19.44022523 -93 19.4375 C-92.26688599 19.4385675 -91.53377197 19.43963501 -90.77844238 19.44073486 C-67.88755186 19.39317162 -45.82697173 14.72392738 -24 8 C-22.86643066 7.65122803 -22.86643066 7.65122803 -21.70996094 7.29541016 C-13.56951598 4.77683087 -13.56951598 4.77683087 -5.78125 1.35546875 C-3 0 -3 0 0 0 Z " fill="#270074" transform="translate(467,550)"/>
<path d="M0 0 C0.99 0 1.98 0 3 0 C3.02339336 19.3848614 3.04101076 38.76971991 3.05181217 58.15459251 C3.05696147 67.15596362 3.06397807 76.15732594 3.07543945 85.15869141 C3.0854281 93.00718493 3.09186337 100.85567208 3.09408849 108.70417178 C3.09538851 112.85722621 3.09842932 117.01026243 3.10573006 121.163311 C3.11255631 125.07844962 3.11460361 128.99356266 3.11310768 132.90870667 C3.11338105 134.33968368 3.11534677 135.77066162 3.11920547 137.20163345 C3.13884538 144.86586412 2.98210139 152.39272763 2 160 C-10.37202594 158.05457543 -20.78305256 147.54441348 -28.02514648 137.91064453 C-43.20688805 116.85256416 -48.97722646 92.4970975 -45.49609375 66.75390625 C-41.03345849 41.83965111 -24.95689653 21.44934741 -5.453125 6.11328125 C-2.96253088 4.13270986 -2.96253088 4.13270986 -1.359375 1.73046875 C-0.91078125 1.15941406 -0.4621875 0.58835937 0 0 Z " fill="#2B017D" transform="translate(200,296)"/>
<path d="M0 0 C6.62121196 4.35687927 6.62121196 4.35687927 8.9296875 6.91796875 C9.41074951 7.44495361 9.89181152 7.97193848 10.38745117 8.51489258 C10.87834229 9.06685303 11.3692334 9.61881348 11.875 10.1875 C12.39747314 10.76846436 12.91994629 11.34942871 13.45825195 11.94799805 C14.5007288 13.1077154 15.54123337 14.2692092 16.57958984 15.43261719 C17.76947322 16.74562016 18.99945669 18.02213197 20.23828125 19.2890625 C36.2469238 35.90725256 43.59069269 59.9001994 43.375 82.5 C43.38660156 83.71558594 43.39820313 84.93117188 43.41015625 86.18359375 C43.38351947 94.50314795 42.21454444 101.9914618 40 110 C39.70996094 111.09538086 39.70996094 111.09538086 39.4140625 112.21289062 C35.37535539 126.83422501 27.29167239 142.16924399 14.3515625 150.7578125 C10.06084149 153.01269591 5.90213318 154.74860855 1 155 C0 154 0 154 -0.12304783 151.4718771 C-0.12212604 150.33714993 -0.12120424 149.20242277 -0.12025452 148.03330994 C-0.12162918 146.73615555 -0.12300385 145.43900116 -0.12442017 144.10253906 C-0.12088055 142.6516111 -0.11724573 141.20068337 -0.11352539 139.74975586 C-0.11324353 138.23238629 -0.11340123 136.71501658 -0.1139679 135.19764709 C-0.11425591 131.06559484 -0.10835858 126.93357137 -0.10139394 122.80152583 C-0.09516102 118.48801108 -0.09455665 114.17449573 -0.09336853 109.86097717 C-0.09025503 101.68699883 -0.08204139 93.51303379 -0.07201904 85.33906132 C-0.06085848 76.03571031 -0.0553476 66.73235868 -0.05032361 57.42900264 C-0.03985879 38.28599421 -0.02225899 19.14299817 0 0 Z " fill="#280078" transform="translate(548,300)"/>
<path d="M0 0 C0.969375 0.7425 1.93875 1.485 2.9375 2.25 C3.989375 1.610625 5.04125 0.97125 6.125 0.3125 C9.1028672 -1.37297284 11.48971087 -2.41363033 14.9375 -2.75 C16.195625 -2.87375 17.45375 -2.9975 18.75 -3.125 C23.70486902 -3.06869467 27.17360432 -0.8184877 30.9375 2.25 C32.8125 4.5625 32.8125 4.5625 33.9375 6.25 C34.5975 6.25 35.2575 6.25 35.9375 6.25 C37.26911016 4.78221122 37.26911016 4.78221122 38.625 2.9375 C42.32149542 -1.45208831 45.78177646 -3.37709323 51.58203125 -4.0625 C57.70433541 -4.33050784 62.22140479 -3.80042627 66.9375 0.25 C72.5686591 5.66631568 74.97273694 9.61989193 75.25 17.5 C75.16326465 24.00515121 72.71095955 29.09308973 68.625 34.0625 C62.89160117 38.72921998 58.8816111 41.02699503 51.421875 40.69921875 C44.43576241 39.43600657 39.03108761 33.88198124 33.9375 29.25 C33.55078125 30.17232422 33.55078125 30.17232422 33.15625 31.11328125 C30.93807949 35.00218916 26.85056128 36.29346936 22.9375 38.25 C15.61480934 38.9907697 11.01650901 38.34402647 4.9375 34.25 C2.99219564 33.35855234 2.99219564 33.35855234 0.9375 33.25 C-0.78927814 34.33829446 -0.78927814 34.33829446 -2.3125 36 C-8.09604522 41.28009436 -13.89790904 42.83248758 -21.68359375 42.5234375 C-29.45339585 41.6303568 -34.26339633 37.03270374 -39.0625 31.25 C-42.94934148 25.05534638 -42.8197606 18.34711675 -42.0625 11.25 C-40.26936257 4.10135879 -34.82535417 -0.51647971 -29.0625 -4.75 C-18.89136393 -9.94377161 -8.68676085 -6.1225965 0 0 Z " fill="#E322A6" transform="translate(435.0625,345.75)"/>
<path d="M0 0 C6.16875055 4.36326258 11.01335004 8.16271527 12.5625 15.8125 C13.23085128 24.20544971 12.21599864 29.94597341 7.375 37 C2.02105488 42.35394512 -2.45952322 44.05271719 -10.0625 44.3125 C-17.79749362 44.0621187 -21.14828038 41.10171962 -26.4375 35.8125 C-27.0975 35.8125 -27.7575 35.8125 -28.4375 35.8125 C-29.30375 36.740625 -29.30375 36.740625 -30.1875 37.6875 C-34.6435785 41.89601858 -39.91910451 42.29549023 -45.82421875 42.21484375 C-50.26939452 41.53045944 -53.7575656 39.30134452 -57.4375 36.8125 C-58.345 37.59625 -59.2525 38.38 -60.1875 39.1875 C-64.7076902 43.09130062 -68.21124147 44.22345973 -74.13671875 44.05859375 C-80.64464062 43.36250024 -86.18157642 39.64781912 -90.4375 34.8125 C-94.34990781 28.33143192 -94.31554645 22.19146729 -93.4375 14.8125 C-91.04252016 7.78279065 -84.92330078 3.05540039 -78.4375 -0.1875 C-66.07142264 -1.22939326 -66.07142264 -1.22939326 -61.875 1.6875 C-61.070625 2.38875 -60.26625 3.09 -59.4375 3.8125 C-58.1183418 4.50679379 -56.79100594 5.18780495 -55.4375 5.8125 C-54.53 5.173125 -53.6225 4.53375 -52.6875 3.875 C-47.78377876 0.76302306 -43.25054813 0.00162191 -37.4375 0.8125 C-35.27289858 1.71049588 -33.30966626 2.73980603 -31.296875 3.9375 C-29.17678248 5.09636469 -29.17678248 5.09636469 -25.4375 4.8125 C-23.7300002 3.53187515 -22.06376404 2.19482443 -20.4375 0.8125 C-14.64132795 -2.85840897 -6.24947636 -2.15891002 0 0 Z " fill="#A001E2" transform="translate(332.4375,342.1875)"/>
<path d="M0 0 C6.74320332 5.18415443 11.03281961 12.46487761 12.3359375 20.875 C12.66958739 30.22831859 10.55502233 38.57132039 4.703125 45.97265625 C-2.31167892 53.30290103 -12.16272313 56.54232937 -22.109375 56.91015625 C-33.16547108 56.60586003 -40.27855935 51.38223155 -47.984375 43.84765625 C-52.32206799 37.40308381 -55.04595067 30.05393288 -54.68359375 22.20703125 C-53.00881276 13.66692665 -48.08222139 5.84336454 -41.171875 0.59765625 C-28.49863165 -7.62921189 -12.85907813 -8.30289397 0 0 Z " fill="#9E01E3" transform="translate(394.171875,735.40234375)"/>
<path d="M0 0 C3 2.375 3 2.375 4 4.375 C3.34 4.375 2.68 4.375 2 4.375 C-1.33284924 10.56457716 -2.86548233 16.36333884 -2 23.375 C-0.61785878 26.72661246 -0.61785878 26.72661246 1 29.375 C1 30.035 1 30.695 1 31.375 C1.99 31.87 1.99 31.87 3 32.375 C-4.84188519 39.00066689 -11.1219225 43.0651985 -21.62109375 42.6484375 C-29.39089585 41.7553568 -34.20089633 37.15770374 -39 31.375 C-42.88684148 25.18034638 -42.7572606 18.47211675 -42 11.375 C-40.20686257 4.22635879 -34.76285417 -0.39147971 -29 -4.625 C-18.8636044 -9.8010318 -8.7272358 -5.98997651 0 0 Z " fill="#E324A5" transform="translate(435,345.625)"/>
<path d="M0 0 C6.16875055 4.36326258 11.01335004 8.16271527 12.5625 15.8125 C13.23085128 24.20544971 12.21599864 29.94597341 7.375 37 C2.02105488 42.35394512 -2.45952322 44.05271719 -10.0625 44.3125 C-15.33619969 44.12980832 -18.49742404 43.55557216 -22.4375 39.8125 C-24.21144803 37.86779762 -25.8246315 35.89974159 -27.4375 33.8125 C-26.9425 32.925625 -26.4475 32.03875 -25.9375 31.125 C-23.36753252 25.11617128 -23.34418804 17.66422546 -25.1171875 11.41796875 C-25.96977421 9.33195115 -25.96977421 9.33195115 -27.4375 6.8125 C-26.35880607 5.84894756 -25.27431257 4.89188583 -24.1875 3.9375 C-23.28257812 3.13699219 -23.28257812 3.13699219 -22.359375 2.3203125 C-15.99287653 -2.67454199 -7.48686771 -2.58637248 0 0 Z " fill="#E222A7" transform="translate(332.4375,342.1875)"/>
<path d="M0 0 C5.28019698 3.63469181 8.86195314 9.02335943 10.875 15.0625 C11.65845685 21.57418238 10.69396138 26.68070211 6.875 32.0625 C3.07915594 36.15993167 -1.20484665 38.69209707 -6.7734375 39.3984375 C-14.85751485 39.51425523 -18.70491745 38.01620765 -24.875 32.6875 C-29.09918151 27.75928824 -30.63828563 23.72516889 -30.421875 17.30859375 C-29.80185859 12.61768013 -27.73766808 8.98150212 -25.125 5.0625 C-24.465 5.0625 -23.805 5.0625 -23.125 5.0625 C-22.88007813 4.43859375 -22.63515625 3.8146875 -22.3828125 3.171875 C-20.45172951 -0.06658715 -18.05226079 -0.38444889 -14.55859375 -1.390625 C-9.21793658 -2.59077268 -4.94129014 -2.70973975 0 0 Z " fill="#9F01E3" transform="translate(462.125,344.9375)"/>
<path d="M0 0 C3.36522864 1.30766711 5.45954565 3.45954565 8 6 C7.71483504 8.66153963 6.81342268 10.3134499 5.4375 12.625 C2.10471241 20.44980566 4.08149659 27.31541853 7.125 34.9453125 C7.41375 35.62335938 7.7025 36.30140625 8 37 C2.42584336 41.81404437 -1.14539232 44.45626568 -8.69921875 44.24609375 C-15.20714062 43.55000024 -20.74407642 39.83531912 -25 35 C-28.91240781 28.51893192 -28.87804645 22.37896729 -28 15 C-23.73083053 2.46919701 -11.93462504 -1.08760253 0 0 Z " fill="#E223A6" transform="translate(267,342)"/>
<path d="M0 0 C1.32 0 2.64 0 4 0 C4 74.91 4 149.82 4 227 C0 226 0 226 -1 225 C-1.10016659 222.11972283 -1.13438731 219.26334881 -1.12698364 216.38256836 C-1.12854363 215.46770377 -1.13010362 214.55283918 -1.13171089 213.61025143 C-1.13572505 210.52009953 -1.13252964 207.42999608 -1.12939453 204.33984375 C-1.13074839 202.13444998 -1.13252823 199.92905644 -1.13470459 197.72366333 C-1.13928078 191.71557694 -1.1374886 185.70750764 -1.1343255 179.69942093 C-1.13180286 173.42713625 -1.13413917 167.15485309 -1.13571167 160.88256836 C-1.13765052 149.67133688 -1.13453274 138.46011247 -1.12945233 127.24888265 C-1.12498429 117.0737955 -1.12576022 106.89871976 -1.13037109 96.72363281 C-1.13571679 84.92135389 -1.13771773 73.11908049 -1.13475883 61.31680012 C-1.13319561 55.06421446 -1.1330035 48.81163667 -1.13629532 42.55905151 C-1.13917288 36.68227222 -1.13720047 30.80551458 -1.13140106 24.92873764 C-1.13007284 22.7651053 -1.13046862 20.60147115 -1.13266373 18.43783951 C-1.13537281 15.49767851 -1.13199708 12.55758807 -1.12698364 9.61743164 C-1.12921436 8.74945418 -1.13144509 7.88147673 -1.13374341 6.98719692 C-1.11414982 1.11414982 -1.11414982 1.11414982 0 0 Z " fill="#2F047A" transform="translate(140,621)"/>
<path d="M0 0 C1.32 0.66 2.64 1.32 4 2 C4 75.92 4 149.84 4 226 C2.35 226 0.7 226 -1 226 C-1.0227902 197.35335355 -1.04049809 168.70670824 -1.05106533 140.06005451 C-1.0523161 136.68155651 -1.05361042 133.30305852 -1.05493164 129.92456055 C-1.05519395 129.25193453 -1.05545626 128.57930852 -1.05572652 127.8862999 C-1.06008324 116.98117581 -1.0679708 106.07605697 -1.0771528 95.170936 C-1.08648928 83.98945918 -1.0919807 72.80798417 -1.09408849 61.62650341 C-1.09539602 55.34260126 -1.09848453 49.05871104 -1.10573006 42.7748127 C-1.11248637 36.86768149 -1.11461776 30.96056717 -1.11310768 25.05343246 C-1.11338419 22.87851177 -1.1153916 20.70359054 -1.11920547 18.52867317 C-1.12413666 15.5731358 -1.12300043 12.61766332 -1.12025452 9.66212463 C-1.12316736 8.78957411 -1.1260802 7.91702358 -1.12908131 7.01803213 C-1.11412121 1.11412121 -1.11412121 1.11412121 0 0 Z " fill="#400881" transform="translate(612,621)"/>
<path d="M0 0 C0.99 0.33 1.98 0.66 3 1 C3 74.59 3 148.18 3 224 C2.34 223.67 1.68 223.34 1 223 C0.34 223.99 -0.32 224.98 -1 226 C-1.8311217 215.51008489 -2.1448088 205.08871636 -2.12939453 194.56665039 C-2.13075399 192.98091085 -2.13253695 191.39517163 -2.13470459 189.80943298 C-2.13922055 185.54383785 -2.13751193 181.27826721 -2.1343255 177.01267171 C-2.13176391 172.50067032 -2.13415058 167.9886708 -2.13571167 163.47666931 C-2.13752557 155.88556551 -2.1351509 148.29447146 -2.13037109 140.70336914 C-2.12496342 132.01669142 -2.12666868 123.33003731 -2.1321975 114.6433602 C-2.13679131 107.11565392 -2.13734808 99.5879546 -2.13475883 92.06024736 C-2.13322567 87.59596304 -2.13291757 83.13168964 -2.13629532 78.66740608 C-2.14741588 61.56545683 -2.08313783 44.47554907 -1.55419922 27.38061523 C-1.51547762 26.11270425 -1.47675602 24.84479326 -1.43686104 23.53846073 C-1.16621993 15.67198233 -0.66836312 7.84253646 0 0 Z " fill="#FCC45A" transform="translate(608,622)"/>
<path d="M0 0 C3.76191589 1.36069298 5.40400913 2.97131587 7.9375 6.0625 C8.58447266 9.39648438 8.58447266 9.39648438 8.6015625 13.15625 C8.60634613 13.82539429 8.61112976 14.49453857 8.61605835 15.18395996 C8.61944656 16.59255334 8.61031922 18.00122652 8.58935547 19.40966797 C8.56256289 21.55745886 8.58912766 23.70002653 8.62109375 25.84765625 C8.61778945 27.22136562 8.61138276 28.59507176 8.6015625 29.96875 C8.59592285 31.20947266 8.5902832 32.45019531 8.58447266 33.72851562 C7.77052572 37.9229531 6.21372318 39.41081941 2.9375 42.0625 C-0.08898335 42.96988141 -1.8121807 42.52683133 -5.0625 42.0625 C-7.27099609 40.5078125 -7.27099609 40.5078125 -9.0625 38.0625 C-9.48479326 35.36282611 -9.67098912 33.07492924 -9.6640625 30.375 C-9.67263275 29.63548096 -9.681203 28.89596191 -9.69003296 28.1340332 C-9.70149339 26.57409757 -9.7025391 25.01405508 -9.69384766 23.45410156 C-9.68751755 21.06911064 -9.73447713 18.68906619 -9.78515625 16.3046875 C-9.78970195 14.78646458 -9.79110935 13.26822835 -9.7890625 11.75 C-9.80748199 11.03948486 -9.82590149 10.32896973 -9.84487915 9.59692383 C-9.80712891 7.57421875 -9.80712891 7.57421875 -9.0625 4.0625 C-5.90442002 1.32207542 -4.20501697 0.08581667 0 0 Z " fill="#E428A3" transform="translate(372.0625,46.9375)"/>
<path d="M0 0 C1.32 0 2.64 0 4 0 C4.15335961 36.34858602 3.74224218 72.65966776 3 109 C2.67 109 2.34 109 2 109 C1.97682047 118.8228108 1.95905627 128.64561509 1.94818783 138.46844769 C1.94297129 143.02967483 1.93589593 147.59088324 1.92456055 152.15209961 C1.91368803 156.55466203 1.90771389 160.95720645 1.90512276 165.35978127 C1.90327639 167.03867692 1.89967091 168.7175716 1.89426994 170.39645958 C1.88700161 172.74959816 1.88601151 175.10266253 1.88647461 177.45581055 C1.88287933 178.1484903 1.87928406 178.84117004 1.87557983 179.55484009 C1.88328237 183.17647309 2.21673993 186.47016659 3 190 C3.08139854 192.5790208 3.11677186 195.12918413 3.09765625 197.70703125 C3.09553383 198.79512337 3.09553383 198.79512337 3.09336853 199.90519714 C3.08779931 202.2076745 3.07525261 204.51005235 3.0625 206.8125 C3.05748102 208.37955588 3.05291881 209.9466133 3.04882812 211.51367188 C3.03783998 215.34248589 3.02059673 219.17122611 3 223 C2.01 223 1.02 223 0 223 C0 149.41 0 75.82 0 0 Z " fill="#260161" transform="translate(612,623)"/>
<path d="M0 0 C2.31 0.99 4.62 1.98 7 3 C7 3.33 7 3.66 7 4 C2.31706555 4.92147011 -2.21350182 5.14023111 -6.96912956 5.12304783 C-8.15208969 5.1247786 -8.15208969 5.1247786 -9.35894799 5.12654433 C-12.00558578 5.1291944 -14.65216293 5.12470206 -17.29879761 5.12025452 C-19.21375865 5.12069055 -21.12871964 5.12156604 -23.04368031 5.12284368 C-28.30906049 5.12508239 -33.57442038 5.12107585 -38.83979797 5.11606562 C-44.51663716 5.11175238 -50.19347518 5.11320817 -55.87031555 5.1139679 C-65.70691067 5.11449257 -75.54349917 5.11135161 -85.38009262 5.10573006 C-99.60220562 5.0976075 -113.82431541 5.09499906 -128.04643048 5.09374207 C-151.12014835 5.09155274 -174.19386224 5.08490446 -197.26757812 5.07543945 C-219.68326804 5.06625499 -242.09895702 5.05917139 -264.51464844 5.05493164 C-265.20560717 5.05480011 -265.8965659 5.05466859 -266.60846277 5.05453308 C-273.54735921 5.05321456 -280.48625566 5.05193874 -287.42515211 5.05069422 C-345.61677044 5.04025327 -403.80838516 5.02260711 -462 5 C-462 4.67 -462 4.34 -462 4 C-309.54 4 -157.08 4 0 4 C0 2.68 0 1.36 0 0 Z " fill="#FAC283" transform="translate(608,844)"/>
<path d="M0 0 C0.33 0 0.66 0 1 0 C3.10595505 9.78684441 3.21159251 19.1825973 3.0625 29.125 C3.03481118 31.37766598 3.01017939 33.63026854 2.99131775 35.88302612 C2.97360214 37.90011416 2.9461811 39.9171101 2.91821289 41.93408203 C2.78133678 44.91534281 2.78133678 44.91534281 4 47 C4.08212894 49.0148403 4.09714182 51.03252192 4.08229065 53.04898071 C4.07525116 54.33909561 4.06821167 55.62921051 4.06095886 56.9584198 C4.04797548 58.3962716 4.03489543 59.83412253 4.02172852 61.27197266 C4.01158889 62.77963479 4.00189487 64.28729998 3.99261475 65.79496765 C3.96610207 69.89600002 3.93332908 73.99696165 3.89946485 78.09793901 C3.86515312 82.38072777 3.83655335 86.66355448 3.80735779 90.94638062 C3.751174 99.06014525 3.68982425 107.17386234 3.62663645 115.28757513 C3.55496156 124.52320987 3.48901836 133.75888273 3.42356598 142.99456334 C3.28877272 161.99642518 3.14675106 180.99822694 3 200 C2.34 200 1.68 200 1 200 C-0.83467066 193.8134655 -1.21233037 188.45634855 -0.9765625 182.03125 C-0.93902359 180.64987854 -0.93902359 180.64987854 -0.90072632 179.24060059 C-0.81917819 176.32665553 -0.72234008 173.41345591 -0.625 170.5 C-0.56669368 168.51305035 -0.50939195 166.52607095 -0.453125 164.5390625 C-0.31369735 159.69228698 -0.1605642 154.84611948 0 150 C0.66 150 1.32 150 2 150 C1.67 138.12 1.34 126.24 1 114 C0.67 114 0.34 114 0 114 C-1.00905829 107.32338094 -1.14548765 100.80057768 -1.1328125 94.0546875 C-1.13376923 92.92604279 -1.13472595 91.79739807 -1.13571167 90.634552 C-1.13638944 88.25945988 -1.13456337 85.88436586 -1.13037109 83.50927734 C-1.12500715 79.8798405 -1.13033495 76.25052683 -1.13671875 72.62109375 C-1.13605809 70.30729139 -1.13477719 67.99348912 -1.1328125 65.6796875 C-1.13483673 64.59831512 -1.13686096 63.51694275 -1.13894653 62.40280151 C-1.12360901 57.46504983 -0.91425114 52.86456347 0 48 C0.28828674 43.38709401 0.41970601 38.7696565 0.55761719 34.15014648 C0.62491503 31.9402902 0.70271681 29.73096655 0.78125 27.52148438 C0.82615773 26.10679091 0.87044951 24.69207772 0.9140625 23.27734375 C0.9548291 22.00109131 0.9955957 20.72483887 1.03759766 19.40991211 C1.0045883 16.41613526 0.66652039 13.9008749 0 11 C-0.06533435 9.06348981 -0.08584303 7.12497139 -0.0625 5.1875 C-0.05347656 4.21167969 -0.04445313 3.23585938 -0.03515625 2.23046875 C-0.02355469 1.49441406 -0.01195312 0.75835937 0 0 Z " fill="#FCCB5B" transform="translate(544,253)"/>
<path d="M0 0 C4.76881876 -0.09900135 9.5370373 -0.17152928 14.30664062 -0.21972656 C15.92849143 -0.23982144 17.55026997 -0.26710254 19.171875 -0.30175781 C21.5053898 -0.3503727 23.83794557 -0.37298889 26.171875 -0.390625 C27.25647003 -0.42159271 27.25647003 -0.42159271 28.36297607 -0.45318604 C31.67801981 -0.45465804 33.68124878 -0.2126692 36.46484375 1.64453125 C38.43012936 4.65996948 38.46089626 6.49429066 38.390625 10.078125 C38.37773437 11.23828125 38.36484375 12.3984375 38.3515625 13.59375 C38.31804687 14.8003125 38.28453125 16.006875 38.25 17.25 C38.23195312 18.47203125 38.21390625 19.6940625 38.1953125 20.953125 C38.148181 23.96954078 38.08239413 26.98437491 38 30 C36.125 30.625 36.125 30.625 34 31 C32 29 32 29 31.77294922 26.84521484 C31.78342285 25.97590332 31.79389648 25.1065918 31.8046875 24.2109375 C31.81113281 23.26992188 31.81757813 22.32890625 31.82421875 21.359375 C31.84097656 20.37453125 31.85773438 19.3896875 31.875 18.375 C31.88402344 17.38242187 31.89304688 16.38984375 31.90234375 15.3671875 C31.92595884 12.91121866 31.95889201 10.45572832 32 8 C30.66038208 8.02356567 30.66038208 8.02356567 29.29370117 8.04760742 C25.97821244 8.09875439 22.66314325 8.13635812 19.34741211 8.16479492 C17.91277448 8.17987589 16.47818292 8.2003438 15.04370117 8.22631836 C12.98084141 8.26273437 10.91859142 8.27973243 8.85546875 8.29296875 C7.61434326 8.3086792 6.37321777 8.32438965 5.09448242 8.34057617 C2 8 2 8 0.0090332 6.79418945 C-1 5 -1 5 -0.6875 2.3125 C-0.460625 1.549375 -0.23375 0.78625 0 0 Z " fill="#2E0D65" transform="translate(163,248)"/>
<path d="M0 0 C11.22 0 22.44 0 34 0 C33 7 33 7 32 8 C29.85441173 8.08775605 27.70595579 8.10695219 25.55859375 8.09765625 C24.25341797 8.09443359 22.94824219 8.09121094 21.60351562 8.08789062 C20.2148431 8.07953401 18.82617123 8.07106905 17.4375 8.0625 C16.04492344 8.05748666 14.65234519 8.05292347 13.25976562 8.04882812 C9.83982549 8.03699442 6.4199075 8.01905831 3 8 C3 14.93 3 21.86 3 29 C1.35 29.33 -0.3 29.66 -2 30 C-2 20.76 -2 11.52 -2 2 C-1.34 2 -0.68 2 0 2 C0 1.34 0 0.68 0 0 Z " fill="#38136E" transform="translate(551,248)"/>
<path d="M0 0 C4.27024238 0.66873607 7.90494225 2.12629268 11.875 3.8125 C29.77885466 11.12157241 49.01118159 13.86078357 68 17 C68 17.33 68 17.66 68 18 C61.21060304 19.00736987 55.27805306 18.86118324 48.5 17.875 C47.54528809 17.74174316 46.59057617 17.60848633 45.60693359 17.47119141 C38.75492001 16.4413892 32.20654779 14.89283402 25.63085938 12.71435547 C22.30339687 11.61629284 19.13924483 10.81928653 15.66796875 10.421875 C12.39572521 10.04551472 10.81620558 9.46025474 8 8 C7.01 8.33 6.02 8.66 5 9 C6.31579359 19.34495715 6.31579359 19.34495715 10 29 C10.391875 29.804375 10.78375 30.60875 11.1875 31.4375 C11.455625 31.953125 11.72375 32.46875 12 33 C12.66 33 13.32 33 14 33 C13.67 33.66 13.34 34.32 13 35 C6.8706962 30.80469982 2.41504255 27.24512766 0 20 C-0.08106686 18.44578271 -0.10756898 16.88832973 -0.09765625 15.33203125 C-0.09443359 14.43935547 -0.09121094 13.54667969 -0.08789062 12.62695312 C-0.07951172 11.69818359 -0.07113281 10.76941406 -0.0625 9.8125 C-0.05798828 8.87212891 -0.05347656 7.93175781 -0.04882812 6.96289062 C-0.03704626 4.64186288 -0.02059558 2.32096356 0 0 Z " fill="#29045F" transform="translate(283,551)"/>
<path d="M0 0 C3.93273922 0.79360208 6.80989749 2.56608789 10.1953125 4.6484375 C18.12277023 8.46863301 25.64296302 9.50172014 34.375 9.375 C35.38868652 9.36484863 36.40237305 9.35469727 37.44677734 9.34423828 C49.09844904 9.1026267 57.90502002 6.39380799 68.28515625 1.109375 C71 0 71 0 74 1 C73.765625 2.84375 73.765625 2.84375 73 5 C59.23195461 15.12010174 39.10537386 16.58792112 22.8125 14.3125 C14.19285806 12.67232522 6.02674466 9.27005849 -1 4 C-0.67 2.68 -0.34 1.36 0 0 Z " fill="#3A0C64" transform="translate(334,488)"/>
<path d="M0 0 C4.39656173 -0.02465504 8.7930872 -0.04283842 13.18969727 -0.05493164 C14.68644918 -0.05997121 16.18319616 -0.06680287 17.67993164 -0.07543945 C19.82699807 -0.08752159 21.97399962 -0.09323191 24.12109375 -0.09765625 C26.06133423 -0.10551147 26.06133423 -0.10551147 28.04077148 -0.11352539 C31 0 31 0 32 1 C32.125 3.5 32.125 3.5 32 6 C29.56983963 8.43016037 23.74224869 7.17322555 20.34570312 7.18554688 C19.29201538 7.18542603 19.29201538 7.18542603 18.21704102 7.18530273 C16.07483 7.18748743 13.93313529 7.20563512 11.79101562 7.22460938 C10.4348976 7.22754359 9.07877712 7.2295282 7.72265625 7.23046875 C6.48265869 7.23457764 5.24266113 7.23868652 3.96508789 7.24291992 C1 7 1 7 -1 5 C-0.625 2.375 -0.625 2.375 0 0 Z " fill="#21015E" transform="translate(163,223)"/>
<path d="M0 0 C1.25159912 0.00523682 2.50319824 0.01047363 3.79272461 0.01586914 C4.78942421 0.01799156 4.78942421 0.01799156 5.80625916 0.02015686 C7.93590735 0.02577021 10.06545175 0.03832485 12.19506836 0.05102539 C13.63582205 0.05603868 15.07657739 0.06060188 16.51733398 0.06469727 C20.05577938 0.07574394 23.59416375 0.09301747 27.13256836 0.11352539 C27.25756836 2.48852539 27.25756836 2.48852539 27.13256836 5.11352539 C25.13256836 7.11352539 25.13256836 7.11352539 22.35107422 7.35644531 C21.19486572 7.35233643 20.03865723 7.34822754 18.84741211 7.34399414 C17.59508789 7.34206055 16.34276367 7.34012695 15.05249023 7.33813477 C13.08119141 7.31976563 13.08119141 7.31976563 11.07006836 7.30102539 C9.75200195 7.30038086 8.43393555 7.29973633 7.07592773 7.29907227 C-2.72734041 7.25361662 -2.72734041 7.25361662 -3.86743164 6.11352539 C-3.99243164 3.61352539 -3.99243164 3.61352539 -3.86743164 1.11352539 C-2.86743164 0.11352539 -2.86743164 0.11352539 0 0 Z " fill="#23035F" transform="translate(557.867431640625,222.886474609375)"/>
<path d="M0 0 C0.33 0 0.66 0 1 0 C3.08754781 9.76110995 3.24045094 19.1457 3.125 29.0625 C3.11493818 30.57225961 3.10581806 32.0820258 3.09765625 33.59179688 C3.07521493 37.39465071 3.03796015 41.1972687 3 45 C3 45.99 3 46.98 3 48 C2.97177971 50.10249096 2.94073587 52.2049444 2.90820312 54.30737305 C2.88818237 55.60849533 2.86816162 56.90961761 2.84753418 58.25016785 C2.82544438 59.67068489 2.80334953 61.09120186 2.78125 62.51171875 C2.75880963 63.9647468 2.73638965 65.41777517 2.71398926 66.87080383 C2.65500939 70.6930472 2.59575236 74.51528622 2.53643799 78.33752441 C2.4759478 82.23868557 2.41571922 86.13985076 2.35546875 90.04101562 C2.23723548 97.6940144 2.11870947 105.3470086 2 113 C1.01 113.495 1.01 113.495 0 114 C-1.00905829 107.32338094 -1.14548765 100.80057768 -1.1328125 94.0546875 C-1.13376923 92.92604279 -1.13472595 91.79739807 -1.13571167 90.634552 C-1.13638944 88.25945988 -1.13456337 85.88436586 -1.13037109 83.50927734 C-1.12500715 79.8798405 -1.13033495 76.25052683 -1.13671875 72.62109375 C-1.13605809 70.30729139 -1.13477719 67.99348912 -1.1328125 65.6796875 C-1.13483673 64.59831512 -1.13686096 63.51694275 -1.13894653 62.40280151 C-1.12360901 57.46504983 -0.91425114 52.86456347 0 48 C0.28828674 43.38709401 0.41970601 38.7696565 0.55761719 34.15014648 C0.62491503 31.9402902 0.70271681 29.73096655 0.78125 27.52148438 C0.82615773 26.10679091 0.87044951 24.69207772 0.9140625 23.27734375 C0.9548291 22.00109131 0.9955957 20.72483887 1.03759766 19.40991211 C1.0045883 16.41613526 0.66652039 13.9008749 0 11 C-0.06533435 9.06348981 -0.08584303 7.12497139 -0.0625 5.1875 C-0.05347656 4.21167969 -0.04445313 3.23585938 -0.03515625 2.23046875 C-0.02355469 1.49441406 -0.01195312 0.75835937 0 0 Z " fill="#FCCB6E" transform="translate(544,253)"/>
<path d="M0 0 C5.890625 3.65625 5.890625 3.65625 6.875 6.75 C6.936875 7.86375 6.936875 7.86375 7 9 C6.01 9.33 5.02 9.66 4 10 C4 27.82 4 45.64 4 64 C3.67 64 3.34 64 3 64 C2.67 61.36 2.34 58.72 2 56 C1.67 56 1.34 56 1 56 C0.15775123 48.96130477 -0.13596489 42.04612944 -0.09765625 34.9609375 C-0.0962413 33.95406891 -0.09482635 32.94720032 -0.09336853 31.90982056 C-0.08782431 28.73151527 -0.07528259 25.55328356 -0.0625 22.375 C-0.05747778 20.20442811 -0.05291614 18.0338551 -0.04882812 15.86328125 C-0.03787323 10.57549624 -0.02119176 5.28775338 0 0 Z " fill="#210066" transform="translate(548,300)"/>
<path d="M0 0 C0 7.26 0 14.52 0 22 C-0.33 22 -0.66 22 -1 22 C-1 16.72 -1 11.44 -1 6 C-1.66 6 -2.32 6 -3 6 C-3 7.65 -3 9.3 -3 11 C-3.99 10.01 -4.98 9.02 -6 8 C-7.010625 8.495 -8.02125 8.99 -9.0625 9.5 C-12.79205359 11.1297846 -15.93584554 11.0796893 -20 11 C-20.66 11.66 -21.32 12.32 -22 13 C-24 13 -26 13 -28 13 C-28.99 13.66 -29.98 14.32 -31 15 C-33.60245498 15.14221065 -36.09117684 15.18802932 -38.6875 15.125 C-39.7403418 15.11146484 -39.7403418 15.11146484 -40.81445312 15.09765625 C-42.54311525 15.07413704 -44.27160145 15.03826713 -46 15 C-43.36637024 13.24424683 -42.02271675 12.60554556 -39.078125 11.88671875 C-38.30686279 11.69319824 -37.53560059 11.49967773 -36.7409668 11.30029297 C-35.91894775 11.09807129 -35.09692871 10.89584961 -34.25 10.6875 C-19.63944572 7.05843096 -19.63944572 7.05843096 -5.76953125 1.3515625 C-3 0 -3 0 0 0 Z " fill="#2B075C" transform="translate(467,550)"/>
<path d="M0 0 C1.03318588 1.54977882 2.06070344 3.10689611 2.98046875 4.7265625 C11.36060379 17.90696907 30.76531159 24.37145651 45.2890625 27.76953125 C46.88252329 28.05861042 48.48256702 28.3172678 50.08984375 28.515625 C52 29 52 29 53.9296875 30.51171875 C56.46753437 32.33609546 58.09524464 32.42090485 61.1875 32.5625 C63.85546875 32.69140625 63.85546875 32.69140625 66 33 C66.33 33.66 66.66 34.32 67 35 C56.55414899 34.48915737 45.97081967 33.32360656 36 30 C35.3125 27.9375 35.3125 27.9375 35 26 C34.12988281 26.05220703 34.12988281 26.05220703 33.2421875 26.10546875 C27.990866 26.28744524 24.60488781 25.83377711 20 23 C20 22.01 20 21.02 20 20 C19.01 20 18.02 20 17 20 C17 19.34 17 18.68 17 18 C16.278125 17.731875 15.55625 17.46375 14.8125 17.1875 C10.90595311 15.53806909 7.52131191 13.34754127 4 11 C4 10.34 4 9.68 4 9 C3.01 8.67 2.02 8.34 1 8 C0.67 5.36 0.34 2.72 0 0 Z " fill="#F9C460" transform="translate(283,571)"/>
<path d="M0 0 C2.6484841 1.32424205 2.9586421 2.22922411 4 5 C4.25836676 7.54372509 4.41901001 9.99082504 4.484375 12.5390625 C4.5084845 13.26112885 4.53259399 13.98319519 4.55743408 14.72714233 C4.60559924 16.24829339 4.64901895 17.76960121 4.68798828 19.29101562 C4.7499842 21.62440524 4.83301105 23.95640876 4.91796875 26.2890625 C4.96220312 27.76819186 5.00521427 29.24735842 5.046875 30.7265625 C5.08575836 31.77500839 5.08575836 31.77500839 5.12542725 32.84463501 C5.16182614 34.56321311 5.08978179 36.28338274 5 38 C3 40 3 40 0.2918396 40.24050903 C-0.85843719 40.23606781 -2.00871399 40.23162659 -3.19384766 40.22705078 C-4.49504547 40.22689972 -5.79624329 40.22674866 -7.13687134 40.22659302 C-8.56260327 40.21637893 -9.98833365 40.20594692 -11.4140625 40.1953125 C-12.86851813 40.19158295 -14.32297627 40.1887357 -15.7774353 40.18673706 C-19.60798056 40.179096 -23.43837446 40.15944357 -27.26885986 40.1373291 C-31.17661491 40.11688078 -35.08439439 40.10773752 -38.9921875 40.09765625 C-46.66152738 40.07619802 -54.33074249 40.04205651 -62 40 C-62 39.67 -62 39.34 -62 39 C-41.21 39 -20.42 39 1 39 C0.67 35.7 0.34 32.4 0 29 C-0.07292289 26.56076852 -0.10864858 24.11998403 -0.09765625 21.6796875 C-0.09443359 20.40351562 -0.09121094 19.12734375 -0.08789062 17.8125 C-0.07532227 15.8634375 -0.07532227 15.8634375 -0.0625 13.875 C-0.05747139 12.52343917 -0.05291091 11.17187652 -0.04882812 9.8203125 C-0.03713711 6.54682735 -0.02075029 3.27343814 0 0 Z " fill="#FBC475" transform="translate(135,809)"/>
<path d="M0 0 C11.22 0 22.44 0 34 0 C33 7 33 7 32 8 C29.85441173 8.08775605 27.70595579 8.10695219 25.55859375 8.09765625 C24.25341797 8.09443359 22.94824219 8.09121094 21.60351562 8.08789062 C20.2148431 8.07953401 18.82617123 8.07106905 17.4375 8.0625 C16.04492344 8.05748666 14.65234519 8.05292347 13.25976562 8.04882812 C9.8398013 8.03699434 6.41992156 8.0205088 3 8 C3 7.67 3 7.34 3 7 C5.64 6.67 8.28 6.34 11 6 C9.68 5.34 8.36 4.68 7 4 C10.96 3.34 14.92 2.68 19 2 C12.73 1.67 6.46 1.34 0 1 C0 0.67 0 0.34 0 0 Z " fill="#3F1D71" transform="translate(551,248)"/>
<path d="M0 0 C0.99 0 1.98 0 3 0 C3 0.99 3 1.98 3 3 C2.01 3 1.02 3 0 3 C0.33 3.99 0.66 4.98 1 6 C1.09089924 7.86480866 1.12195027 9.73275523 1.12025452 11.59977722 C1.12162918 12.76505447 1.12300385 13.93033173 1.12442017 15.13092041 C1.12082489 16.4105365 1.11722961 17.69015259 1.11352539 19.00854492 C1.11324334 20.36857603 1.1134016 21.72860729 1.1139679 23.08863831 C1.11425518 26.78257103 1.1083696 30.47647138 1.10139394 34.17039657 C1.09514891 38.03012539 1.09455569 41.88985492 1.09336853 45.74958801 C1.09025861 53.05935092 1.08204978 60.36909891 1.07201904 67.67885524 C1.06084739 76.00040892 1.0553448 84.32196331 1.05032361 92.64352262 C1.0398669 109.76235705 1.022274 126.88117695 1 144 C0.67 144 0.34 144 0 144 C-0.15375373 125.37243154 -0.30179088 106.7448261 -0.4429636 88.11715794 C-0.50864215 79.46862478 -0.57621364 70.82011405 -0.64819336 62.17163086 C-0.7109031 54.63638047 -0.77011019 47.10111224 -0.82505554 39.56580108 C-0.85429064 35.57342324 -0.88531735 31.58107696 -0.92053413 27.58874702 C-0.95358796 23.8353592 -0.98197839 20.08196573 -1.00670624 16.3285141 C-1.01664578 14.94695867 -1.02832674 13.56541458 -1.04183006 12.18388939 C-1.05993447 10.30566093 -1.07131425 8.42737116 -1.08229065 6.54908752 C-1.09058679 5.49547814 -1.09888292 4.44186876 -1.10743046 3.35633183 C-1 1 -1 1 0 0 Z " fill="#200066" transform="translate(140,621)"/>
<path d="M0 0 C0.99 0 1.98 0 3 0 C3.02518237 5.08219055 3.04308161 10.16434287 3.05493164 15.24658203 C3.05988444 16.96664057 3.06664849 18.68669508 3.07543945 20.40673828 C3.1214479 29.65714332 3.05843028 38.89115344 2.62109375 48.1328125 C2.57517845 49.27869339 2.57517845 49.27869339 2.52833557 50.44772339 C2.23729542 55.76270458 2.23729542 55.76270458 0 58 C0 38.86 0 19.72 0 0 Z " fill="#1B0048" transform="translate(612,623)"/>
<path d="M0 0 C1.65 0.33 3.3 0.66 5 1 C5 8.92 5 16.84 5 25 C3.68 25.33 2.36 25.66 1 26 C-1 24 -1 24 -1.24291992 21.67749023 C-1.23881104 20.73075439 -1.23470215 19.78401855 -1.23046875 18.80859375 C-1.22853516 17.78185547 -1.22660156 16.75511719 -1.22460938 15.69726562 C-1.21236328 14.62154297 -1.20011719 13.54582031 -1.1875 12.4375 C-1.18685547 11.35791016 -1.18621094 10.27832031 -1.18554688 9.16601562 C-1.14014598 1.14014598 -1.14014598 1.14014598 0 0 Z " fill="#2C0C60" transform="translate(369,97)"/>
<path d="M0 0 C0.93645355 -0.0033284 1.8729071 -0.0066568 2.83773804 -0.01008606 C4.80946361 -0.01513144 6.78119766 -0.01749513 8.75292969 -0.01733398 C11.77032398 -0.01952899 14.78735738 -0.0377332 17.8046875 -0.05664062 C19.72395709 -0.05957333 21.6432284 -0.06155895 23.5625 -0.0625 C24.91415756 -0.07327827 24.91415756 -0.07327827 26.29312134 -0.08427429 C27.1343454 -0.08119766 27.97556946 -0.07812103 28.84228516 -0.07495117 C29.94765121 -0.0770887 29.94765121 -0.0770887 31.0753479 -0.07926941 C33.45107835 0.20406192 35.08131175 0.99182788 37.1484375 2.16796875 C32.13540708 4.16900795 27.87036826 4.46140829 22.56640625 4.43359375 C21.75279129 4.4355072 20.93917633 4.43742065 20.10090637 4.43939209 C18.38554575 4.44074797 16.67017466 4.43709339 14.95483398 4.42871094 C12.35441521 4.41804454 9.75469378 4.4286049 7.15429688 4.44140625 C5.47916516 4.44008374 3.80403388 4.43751945 2.12890625 4.43359375 C1.36297653 4.43764221 0.59704681 4.44169067 -0.1920929 4.44586182 C-5.62552629 4.39961889 -10.59614796 3.52920616 -15.8515625 2.16796875 C-15.8515625 1.83796875 -15.8515625 1.50796875 -15.8515625 1.16796875 C-10.53820275 0.07711412 -5.39783373 0.00669616 0 0 Z " fill="#2F0665" transform="translate(363.8515625,599.83203125)"/>
<path d="M0 0 C0.28875 0.61875 0.5775 1.2375 0.875 1.875 C2.22018987 4.41591419 3.42250301 5.71125151 6 7 C6.6680876 10.11774215 7.00729214 13.12882785 7.1875 16.3125 C9.01425743 24.60316833 15.26206054 30.62932823 20.94921875 36.640625 C22.97447963 38.97063942 24.49758981 41.30997033 26 44 C23 44 23 44 20.8359375 42.0859375 C11.35460911 31.64142655 -0.22504253 17.85520049 -1.18359375 3.19140625 C-1 1 -1 1 0 0 Z " fill="#2B086A" transform="translate(159,401)"/>
<path d="M0 0 C-0.21484375 1.83984375 -0.21484375 1.83984375 -1 4 C-4.09340879 6.12860293 -7.5680435 7.49255205 -11 9 C-11.64324219 9.32484375 -12.28648437 9.6496875 -12.94921875 9.984375 C-19.32736911 12.91749404 -26.1239961 12.26074734 -33 12 C-33 11.34 -33 10.68 -33 10 C-29.52560518 8.51457033 -26.19002596 7.54071985 -22.5 6.75 C-16.46679324 5.31459021 -11.22745581 2.91579569 -5.71484375 0.109375 C-3 -1 -3 -1 0 0 Z " fill="#320860" transform="translate(408,489)"/>
<path d="M0 0 C0.66 0.33 1.32 0.66 2 1 C2.02529589 7.65689282 2.04284396 14.3137733 2.05493164 20.97070312 C2.05996926 23.23665836 2.06679952 25.50261033 2.07543945 27.76855469 C2.08752996 31.02019047 2.09323392 34.27178339 2.09765625 37.5234375 C2.10281754 38.54118256 2.10797882 39.55892761 2.11329651 40.60751343 C2.11337204 41.54833771 2.11344757 42.48916199 2.11352539 43.45849609 C2.115746 44.28900482 2.11796661 45.11951355 2.12025452 45.97518921 C2 48 2 48 1 50 C0.77377919 51.70363822 0.59111527 53.41328701 0.4375 55.125 C0.35371094 56.03507812 0.26992187 56.94515625 0.18359375 57.8828125 C0.12300781 58.58148438 0.06242188 59.28015625 0 60 C-0.33 60 -0.66 60 -1 60 C-1.02316561 52.61994209 -1.04093664 45.23989201 -1.05181217 37.85980511 C-1.05703175 34.43297225 -1.06411265 31.00616425 -1.07543945 27.5793457 C-1.08837846 23.64013974 -1.09323586 19.70094387 -1.09765625 15.76171875 C-1.10281754 14.53039719 -1.10797882 13.29907562 -1.11329651 12.03044128 C-1.11337204 10.88948502 -1.11344757 9.74852875 -1.11352539 8.57299805 C-1.11685631 7.06409248 -1.11685631 7.06409248 -1.12025452 5.52470398 C-1 3 -1 3 0 0 Z " fill="#FCC868" transform="translate(204,395)"/>
<path d="M0 0 C0.33 0 0.66 0 1 0 C1.82066152 3.58988479 2.1284829 6.90639803 2.1328125 10.5859375 C2.13482666 11.67116699 2.13684082 12.75639648 2.13891602 13.87451172 C2.13432373 15.02967285 2.12973145 16.18483398 2.125 17.375 C2.12234131 18.56496582 2.11968262 19.75493164 2.11694336 20.98095703 C2.07511185 28.95224202 1.89763417 36.91071117 1.5625 44.875 C1.52334473 45.8242334 1.48418945 46.7734668 1.44384766 47.75146484 C1.24536104 51.9227258 1.01335807 55.9295365 0 60 C-0.33 60 -0.66 60 -1 60 C-1.02543756 52.74089306 -1.04290364 45.4817977 -1.05493164 38.22265625 C-1.0599481 35.75520396 -1.06676281 33.28775463 -1.07543945 30.8203125 C-1.08762288 27.26561756 -1.0932553 23.71096207 -1.09765625 20.15625 C-1.10281754 19.06010376 -1.10797882 17.96395752 -1.11329651 16.83459473 C-1.11371109 11.12358745 -0.86085547 5.64768846 0 0 Z " fill="#FCC761" transform="translate(204,300)"/>
<path d="M0 0 C2.475 0.495 2.475 0.495 5 1 C-6.39829573 10.07642067 -19.99073098 12.24623882 -34.125 12.3125 C-35.15786133 12.31805908 -36.19072266 12.32361816 -37.25488281 12.3293457 C-44.74340061 12.25659939 -44.74340061 12.25659939 -47 10 C-42.65950238 9.37416081 -38.43287097 8.9376356 -34.046875 8.859375 C-24.69301033 8.68344847 -16.87087591 8.53004404 -8.47265625 4.05859375 C-5.50603084 2.78852189 -3.19442462 2.81865712 0 3 C0 2.01 0 1.02 0 0 Z " fill="#F6BF57" transform="translate(402,486)"/>
<path d="M0 0 C0.33 0 0.66 0 1 0 C1.02505615 0.57967529 1.0501123 1.15935059 1.07592773 1.7565918 C1.19246234 4.40042107 1.31492682 7.04394409 1.4375 9.6875 C1.47681641 10.59951172 1.51613281 11.51152344 1.55664062 12.45117188 C1.59853516 13.33740234 1.64042969 14.22363281 1.68359375 15.13671875 C1.73858032 16.35427856 1.73858032 16.35427856 1.79467773 17.59643555 C1.94690623 20.00239695 1.94690623 20.00239695 2.51367188 22.32226562 C3.14376175 25.79155566 3.12369774 29.19518992 3.09765625 32.70703125 C3.09553383 33.79512337 3.09553383 33.79512337 3.09336853 34.90519714 C3.08779931 37.2076745 3.07525261 39.51005235 3.0625 41.8125 C3.05748102 43.37955588 3.05291881 44.9466133 3.04882812 46.51367188 C3.03783998 50.34248589 3.02059673 54.17122611 3 58 C2.01 58 1.02 58 0 58 C0 38.86 0 19.72 0 0 Z " fill="#1C004B" transform="translate(612,788)"/>
<path d="M0 0 C0 14.52 0 29.04 0 44 C-0.33 44 -0.66 44 -1 44 C-1.06058594 42.85144531 -1.12117187 41.70289063 -1.18359375 40.51953125 C-1.26796631 38.95050668 -1.35262162 37.38149729 -1.4375 35.8125 C-1.48116699 34.99692627 -1.52483398 34.18135254 -1.56982422 33.34106445 C-1.89464695 27.44743913 -2.34569109 21.5749502 -2.9140625 15.69921875 C-3.00133026 12.95821788 -2.6483278 10.65620866 -2 8 C-2.99 7.34 -3.98 6.68 -5 6 C-5.24492187 6.58265625 -5.48984375 7.1653125 -5.7421875 7.765625 C-7.20435874 10.36302236 -8.84740414 11.83975831 -11.125 13.75 C-12.21167969 14.67039062 -12.21167969 14.67039062 -13.3203125 15.609375 C-13.87460938 16.06828125 -14.42890625 16.5271875 -15 17 C-15.33 16.34 -15.66 15.68 -16 15 C-15.34 15 -14.68 15 -14 15 C-13.71125 14.4225 -13.4225 13.845 -13.125 13.25 C-12.75375 12.5075 -12.3825 11.765 -12 11 C-11.74089844 10.3709375 -11.48179687 9.741875 -11.21484375 9.09375 C-9.68211697 6.45213729 -7.87218511 5.07894484 -5.4375 3.25 C-4.63183594 2.63640625 -3.82617188 2.0228125 -2.99609375 1.390625 C-1 0 -1 0 0 0 Z " fill="#1D0063" transform="translate(202,297)"/>
<path d="M0 0 C-10.32901983 5.35578806 -22.40620198 7.25139407 -34 6 C-34.99 5.34 -35.98 4.68 -37 4 C-33.9197316 1.94648773 -32.83598067 1.68767666 -29.2890625 1.40234375 C-28.37382812 1.32306641 -27.45859375 1.24378906 -26.515625 1.16210938 C-25.56171875 1.08798828 -24.6078125 1.01386719 -23.625 0.9375 C-21.74199274 0.782293 -19.8591712 0.62481261 -17.9765625 0.46484375 C-17.14205566 0.399021 -16.30754883 0.33319824 -15.44775391 0.26538086 C-12.95087165 0.0318784 -12.95087165 0.0318784 -10.32885742 -0.53662109 C-6.72069029 -1.25454763 -3.61912997 -0.55207067 0 0 Z " fill="#FCCA65" transform="translate(397,501)"/>
<path d="M0 0 C0.33 0 0.66 0 1 0 C1.25748584 4.14457502 1.47579724 8.29035432 1.6875 12.4375 C1.76033203 13.60216797 1.83316406 14.76683594 1.90820312 15.96679688 C2.25007184 23.10582012 1.75243312 28.38425458 -1 35 C-1.33 35 -1.66 35 -2 35 C-3.18462612 28.22075306 -3.33394034 21.43053054 -3.5625 14.5625 C-3.60568359 13.35400391 -3.64886719 12.14550781 -3.69335938 10.90039062 C-3.79889404 7.93369394 -3.90100714 4.96692098 -4 2 C-3.01 2.33 -2.02 2.66 -1 3 C-0.67 2.01 -0.34 1.02 0 0 Z " fill="#F0BF78" transform="translate(204,249)"/>
<path d="M0 0 C3.32265811 2.63956893 4.82874332 4.1174788 5.64697266 8.33398438 C5.6526123 9.57470703 5.65825195 10.81542969 5.6640625 12.09375 C5.66884613 12.76289429 5.67362976 13.43203857 5.67855835 14.12145996 C5.68194656 15.53005334 5.67281922 16.93872652 5.65185547 18.34716797 C5.62506289 20.49495886 5.65162766 22.63752653 5.68359375 24.78515625 C5.68028945 26.15886562 5.67388276 27.53257176 5.6640625 28.90625 C5.65842285 30.14697266 5.6527832 31.38769531 5.64697266 32.66601562 C4.8326244 36.86252122 3.28897229 38.35812984 0 41 C-2.85567413 41.62296556 -5.03992426 41.25085388 -8 41 C-8.33 40.34 -8.66 39.68 -9 39 C-5.04 39.495 -5.04 39.495 -1 40 C-1 39.34 -1 38.68 -1 38 C-0.01 37.34 0.98 36.68 2 36 C2.26711404 33.44604513 2.34849029 31.13725626 2.29296875 28.5859375 C2.28872391 27.85629791 2.28447906 27.12665833 2.28010559 26.37490845 C2.26329353 24.04123241 2.22563868 21.7084156 2.1875 19.375 C2.17245634 17.79428329 2.15876738 16.21355307 2.14648438 14.6328125 C2.11338201 10.75487656 2.06158404 6.87758402 2 3 C-4.52907067 2.02655821 -4.52907067 2.02655821 -11 3 C-7.25679731 -0.91334827 -5.37332126 -1.47502937 0 0 Z " fill="#E63EB5" transform="translate(375,48)"/>
<path d="M0 0 C9.57 0 19.14 0 29 0 C29 0.33 29 0.66 29 1 C22.73 1.66 16.46 2.32 10 3 C11.99616554 4.99616554 15.81701963 4.40983427 18.5625 4.5625 C19.62887695 4.62727539 19.62887695 4.62727539 20.71679688 4.69335938 C22.47761912 4.79971777 24.2387832 4.90038846 26 5 C26 5.33 26 5.66 26 6 C18.41 6.33 10.82 6.66 3 7 C2.34 8.32 1.68 9.64 1 11 C0 9 0 9 0 0 Z " fill="#1C014C" transform="translate(551,249)"/>
<path d="M0 0 C0.99 0 1.98 0 3 0 C2.67 30.36 2.34 60.72 2 92 C1.67 92 1.34 92 1 92 C0.67 61.64 0.34 31.28 0 0 Z " fill="#1D004F" transform="translate(140,624)"/>
<path d="M0 0 C0.68384766 0.00902344 1.36769531 0.01804687 2.07226562 0.02734375 C3.73583287 0.05061042 5.39921631 0.08646833 7.0625 0.125 C6.0725 0.62 6.0725 0.62 5.0625 1.125 C5.0625 1.785 5.0625 2.445 5.0625 3.125 C8.0325 3.125 11.0025 3.125 14.0625 3.125 C14.0625 3.455 14.0625 3.785 14.0625 4.125 C3.03838189 6.23205621 -8.01247468 5.40359001 -18.9375 3.125 C-18.421875 3.00125 -17.90625 2.8775 -17.375 2.75 C-15.45895297 2.25870589 -13.56524932 1.68021286 -11.68359375 1.0703125 C-7.63553539 0.04880038 -4.16645202 -0.07374251 0 0 Z " fill="#551A6B" transform="translate(369.9375,497.875)"/>
<path d="M0 0 C-0.33 0.99 -0.66 1.98 -1 3 C-1.73863281 3.06058594 -2.47726562 3.12117187 -3.23828125 3.18359375 C-5.36211785 3.35900592 -7.48580757 3.53620241 -9.609375 3.71484375 C-11.78617634 3.89791575 -13.96324306 4.07787413 -16.140625 4.25390625 C-17.58695312 4.37572266 -17.58695312 4.37572266 -19.0625 4.5 C-20.37927734 4.60828125 -20.37927734 4.60828125 -21.72265625 4.71875 C-24.16025717 4.94366058 -24.16025717 4.94366058 -27 6 C-27 5.01 -27 4.02 -27 3 C-28.65 2.67 -30.3 2.34 -32 2 C-32 1.67 -32 1.34 -32 1 C-21.312837 0.20414744 -10.71600323 -0.12825004 0 0 Z " fill="#FCCC67" transform="translate(403,604)"/>
<path d="M0 0 C0.33 0 0.66 0 1 0 C1.33 6.27 1.66 12.54 2 19 C2.66 18.34 3.32 17.68 4 17 C6.80252264 20.92353169 8.59962403 24.39876467 10 29 C10.63815344 30.34721283 11.29325371 31.68747118 12 33 C12.66 33 13.32 33 14 33 C13.67 33.66 13.34 34.32 13 35 C6.8706962 30.80469982 2.41504255 27.24512766 0 20 C-0.08106686 18.44578271 -0.10756898 16.88832973 -0.09765625 15.33203125 C-0.09443359 14.43935547 -0.09121094 13.54667969 -0.08789062 12.62695312 C-0.07951172 11.69818359 -0.07113281 10.76941406 -0.0625 9.8125 C-0.05798828 8.87212891 -0.05347656 7.93175781 -0.04882812 6.96289062 C-0.03704626 4.64186288 -0.02059558 2.32096356 0 0 Z " fill="#411D6D" transform="translate(283,551)"/>
<path d="M0 0 C0 7.59 0 15.18 0 23 C-1.32 23.33 -2.64 23.66 -4 24 C-4.08703823 20.56265937 -4.14040272 17.12560163 -4.1875 13.6875 C-4.21263672 12.71103516 -4.23777344 11.73457031 -4.26367188 10.72851562 C-4.27333984 9.79072266 -4.28300781 8.85292969 -4.29296875 7.88671875 C-4.3086792 7.02264404 -4.32438965 6.15856934 -4.34057617 5.26831055 C-3.9837241 2.89159902 -2.85813845 0 0 0 Z " fill="#1D0151" transform="translate(200,252)"/>
<path d="M0 0 C0.78552246 0.01047363 1.57104492 0.02094727 2.38037109 0.03173828 C3.23115234 0.03818359 4.08193359 0.04462891 4.95849609 0.05126953 C6.29267578 0.07640625 6.29267578 0.07640625 7.65380859 0.10205078 C8.55099609 0.11107422 9.44818359 0.12009766 10.37255859 0.12939453 C12.59157445 0.15300108 14.81005937 0.18592768 17.02880859 0.22705078 C17.35880859 1.87705078 17.68880859 3.52705078 18.02880859 5.22705078 C8.12880859 5.22705078 -1.77119141 5.22705078 -11.97119141 5.22705078 C-11.97119141 4.89705078 -11.97119141 4.56705078 -11.97119141 4.22705078 C-2.07119141 3.73205078 -2.07119141 3.73205078 8.02880859 3.22705078 C4.06880859 2.89705078 0.10880859 2.56705078 -3.97119141 2.22705078 C-1.97119141 0.22705078 -1.97119141 0.22705078 0 0 Z " fill="#3C1880" transform="translate(176.97119140625,250.77294921875)"/>
<path d="M0 0 C10.35265153 1.55472682 20.67680372 3.26208817 31 5 C31 5.33 31 5.66 31 6 C23.81507272 7.12194831 17.59930089 6.67634726 10.4375 5.5625 C9.42880859 5.41490234 8.42011719 5.26730469 7.38085938 5.11523438 C4.91889279 4.75352364 2.45894494 4.38162109 0 4 C0.66 3.67 1.32 3.34 2 3 C2 2.34 2 1.68 2 1 C1.34 0.67 0.68 0.34 0 0 Z " fill="#370D64" transform="translate(320,563)"/>
<path d="M0 0 C0.99 0.99 1.98 1.98 3 3 C1.51154587 6.5610865 -0.5000687 8.6420874 -3.375 11.1875 C-4.53128906 12.22970703 -4.53128906 12.22970703 -5.7109375 13.29296875 C-7.91278842 14.93496338 -9.31982886 15.59001948 -12 16 C-12.33 15.34 -12.66 14.68 -13 14 C-12.4225 13.79375 -11.845 13.5875 -11.25 13.375 C-8.16135183 11.48749279 -6.93145332 9.0435022 -5 6 C-3.38318072 3.95233775 -1.69849944 1.98158268 0 0 Z " fill="#2D0668" transform="translate(463,569)"/>
<path d="M0 0 C0.76828125 0.17853516 1.5365625 0.35707031 2.328125 0.54101562 C5.98524803 1.41733317 9.35538569 2.25545518 12.625 4.1875 C12.295 4.8475 11.965 5.5075 11.625 6.1875 C4.34623905 5.48761914 -3.7822273 4.48388635 -10.375 1.1875 C-10.375 0.5275 -10.375 -0.1325 -10.375 -0.8125 C-7.00877951 -2.49561025 -3.51149444 -0.86037447 0 0 Z " fill="#1F005C" transform="translate(327.375,594.8125)"/>
<path d="M0 0 C0.99 0 1.98 0 3 0 C3.125 2.375 3.125 2.375 3 5 C1 7 1 7 -2.9921875 7.046875 C-4.62042412 6.95893423 -6.24806973 6.85948044 -7.875 6.75 C-8.69097656 6.71003906 -9.50695312 6.67007813 -10.34765625 6.62890625 C-14.44858465 6.38137876 -17.3623719 6.03444928 -21 4 C-20 3 -20 3 -18.05053711 2.88647461 C-17.2178833 2.89171143 -16.38522949 2.89694824 -15.52734375 2.90234375 C-14.62822266 2.90556641 -13.72910156 2.90878906 -12.80273438 2.91210938 C-11.85720703 2.92048828 -10.91167969 2.92886719 -9.9375 2.9375 C-8.98810547 2.94201172 -8.03871094 2.94652344 -7.06054688 2.95117188 C-4.70696935 2.9629989 -2.35351523 2.97947975 0 3 C0 2.01 0 1.02 0 0 Z " fill="#26036B" transform="translate(582,223)"/>
<path d="M0 0 C0 7.26 0 14.52 0 22 C-0.33 22 -0.66 22 -1 22 C-1 16.72 -1 11.44 -1 6 C-1.66 6 -2.32 6 -3 6 C-3 7.65 -3 9.3 -3 11 C-3.4125 10.38125 -3.825 9.7625 -4.25 9.125 C-6.05573879 6.93231719 -7.4090534 6.07211583 -10 5 C-6.99385784 1.69324363 -4.54252119 0 0 0 Z " fill="#361167" transform="translate(467,550)"/>
<path d="M0 0 C-0.5 1.8125 -0.5 1.8125 -2 4 C-3.91477091 4.75930571 -5.8371841 5.50619269 -7.796875 6.140625 C-10.13266888 7.05175027 -11.84917556 8.22165955 -13.875 9.6875 C-18.43510122 12.72151157 -22.68881294 12.4897611 -28 12 C-25.86876764 9.86876764 -24.6221497 9.35780823 -21.82421875 8.37890625 C-20.99599609 8.08306641 -20.16777344 7.78722656 -19.31445312 7.48242188 C-18.01411133 7.02706055 -18.01411133 7.02706055 -16.6875 6.5625 C-11.82508372 4.85863898 -4.7846385 0 0 0 Z " fill="#F0B453" transform="translate(450,587)"/>
<path d="M0 0 C3.79160297 -0.05786668 7.58309311 -0.09355054 11.375 -0.125 C12.45523438 -0.14175781 13.53546875 -0.15851563 14.6484375 -0.17578125 C15.6796875 -0.18222656 16.7109375 -0.18867188 17.7734375 -0.1953125 C19.20308838 -0.21102295 19.20308838 -0.21102295 20.66162109 -0.22705078 C23 0 23 0 25 2 C24.34 2.66 23.68 3.32 23 4 C22.34 3.67 21.68 3.34 21 3 C17.67261656 2.73604891 14.33669992 2.76853722 11 2.75 C10.071875 2.729375 9.14375 2.70875 8.1875 2.6875 C7.300625 2.68234375 6.41375 2.6771875 5.5 2.671875 C4.27796875 2.65785645 4.27796875 2.65785645 3.03125 2.64355469 C2.3609375 2.76118164 1.690625 2.87880859 1 3 C0.01 4.485 0.01 4.485 -1 6 C-1.66 6 -2.32 6 -3 6 C-3 4.68 -3 3.36 -3 2 C-2.01 2 -1.02 2 0 2 C0 1.34 0 0.68 0 0 Z " fill="#1D034C" transform="translate(559,223)"/>
<path d="M0 0 C0.33 0 0.66 0 1 0 C1 8.58 1 17.16 1 26 C-0.32 26.33 -1.64 26.66 -3 27 C-5 25 -5 25 -5.22705078 22.84521484 C-5.21657715 21.97590332 -5.20610352 21.1065918 -5.1953125 20.2109375 C-5.18886719 19.26992188 -5.18242187 18.32890625 -5.17578125 17.359375 C-5.15902344 16.37453125 -5.14226562 15.3896875 -5.125 14.375 C-5.11597656 13.38242187 -5.10695312 12.38984375 -5.09765625 11.3671875 C-5.07404116 8.91121866 -5.04110799 6.45572832 -5 4 C-4.67 4 -4.34 4 -4 4 C-3.67 10.27 -3.34 16.54 -3 23 C-2.01 23 -1.02 23 0 23 C0 15.41 0 7.82 0 0 Z " fill="#572C83" transform="translate(200,252)"/>
<path d="M0 0 C-4.8102593 4.8102593 -14.06539552 4.10322358 -20.56201172 4.13623047 C-23.70914029 4.12007694 -26.85362688 4.07187147 -30 4 C-30 3.34 -30 2.68 -30 2 C-25.93776511 1.66338285 -21.87517324 1.33128134 -17.8125 1 C-16.66201172 0.90460937 -15.51152344 0.80921875 -14.32617188 0.7109375 C-13.21435547 0.62070312 -12.10253906 0.53046875 -10.95703125 0.4375 C-9.93585205 0.35371094 -8.91467285 0.26992188 -7.86254883 0.18359375 C-5.23125638 0.01483197 -2.63563508 -0.03387162 0 0 Z " fill="#EAAC69" transform="translate(406,566)"/>
<path d="M0 0 C0.66 0.33 1.32 0.66 2 1 C2 1.66 2 2.32 2 3 C1.34 3 0.68 3 0 3 C-0.226875 3.9075 -0.45375 4.815 -0.6875 5.75 C-2.55153121 10.36569632 -5.22246936 12.08955748 -9.5625 14.3125 C-12.24595542 15.06937204 -13.38902323 14.76728493 -16 14 C-15.14728516 13.48953125 -15.14728516 13.48953125 -14.27734375 12.96875 C-8.49256711 9.33757134 -4.22561132 5.35334682 0 0 Z " fill="#F3B64B" transform="translate(467,571)"/>
<path d="M0 0 C-0.33 1.32 -0.66 2.64 -1 4 C-1.99 4 -2.98 4 -4 4 C-4 3.34 -4 2.68 -4 2 C-11.92 2.33 -19.84 2.66 -28 3 C-28 3.66 -28 4.32 -28 5 C-28.66 5 -29.32 5 -30 5 C-29.67 3.68 -29.34 2.36 -29 1 C-19.31629705 0.30386731 -9.71614177 -0.14973506 0 0 Z " fill="#1F0350" transform="translate(194,223)"/>
<path d="M0 0 C1.30324219 0.61488281 1.30324219 0.61488281 2.6328125 1.2421875 C4.36144531 2.05042969 4.36144531 2.05042969 6.125 2.875 C7.26195312 3.40867187 8.39890625 3.94234375 9.5703125 4.4921875 C12.67869521 5.858743 15.76204996 6.98629528 19 8 C19 8.33 19 8.66 19 9 C13.06 9.495 13.06 9.495 7 10 C7 9.34 7 8.68 7 8 C6.34 8 5.68 8 5 8 C5 7.34 5 6.68 5 6 C4.01 5.67 3.02 5.34 2 5 C0.8125 2.4375 0.8125 2.4375 0 0 Z " fill="#FAC253" transform="translate(335,493)"/>
<path d="M0 0 C0.66 0 1.32 0 2 0 C2.86915258 3.74563374 3.13471483 7.22028497 3.125 11.0625 C3.12886719 12.59583984 3.12886719 12.59583984 3.1328125 14.16015625 C3.01793538 16.61649932 2.70775041 18.65768316 2 21 C1.34 21 0.68 21 0 21 C0 14.07 0 7.14 0 0 Z " fill="#3C157A" transform="translate(154,367)"/>
<path d="M0 0 C1.03318588 1.54977882 2.06070344 3.10689611 2.98046875 4.7265625 C7.7551951 12.23632627 15.40568535 15.82602553 23 20 C20 21 20 21 17 20 C17 19.34 17 18.68 17 18 C16.278125 17.731875 15.55625 17.46375 14.8125 17.1875 C10.90595311 15.53806909 7.52131191 13.34754127 4 11 C4 10.34 4 9.68 4 9 C3.01 8.67 2.02 8.34 1 8 C0.67 5.36 0.34 2.72 0 0 Z " fill="#F4B02F" transform="translate(283,571)"/>
<path d="M0 0 C0 3 0 3 -2 6 C-2.66 6 -3.32 6 -4 6 C-4.226875 6.804375 -4.45375 7.60875 -4.6875 8.4375 C-5.3371875 9.7059375 -5.3371875 9.7059375 -6 11 C-7.65821773 11.37309899 -9.32577014 11.70700977 -11 12 C-12.09166275 13.93330603 -12.09166275 13.93330603 -13 16 C-15.05859375 17.12890625 -15.05859375 17.12890625 -17 18 C-12.17596849 11.19687864 -6.96065565 4.73324584 0 0 Z " fill="#38166D" transform="translate(190,306)"/>
<path d="M0 0 C-12.47903938 9.27460964 -12.47903938 9.27460964 -19 11 C-21.2578125 10.59375 -21.2578125 10.59375 -23 10 C-15.59766867 6.21617803 -15.59766867 6.21617803 -12.0625 4.9375 C-11.381875 4.628125 -10.70125 4.31875 -10 4 C-9.67 3.01 -9.34 2.02 -9 1 C-2.63157895 -1.31578947 -2.63157895 -1.31578947 0 0 Z " fill="#FCC761" transform="translate(459,585)"/>
<path d="M0 0 C2.76276177 0.52268466 5.3260876 1.10869587 8 2 C8 2.66 8 3.32 8 4 C8.7425 4.0825 9.485 4.165 10.25 4.25 C13.51221354 5.1396946 14.80954878 6.48503749 17 9 C16.01 9.495 16.01 9.495 15 10 C12.5655844 8.99672569 10.27776115 7.9399633 7.9375 6.75 C7.28716797 6.43675781 6.63683594 6.12351562 5.96679688 5.80078125 C1.12392948 3.37178845 1.12392948 3.37178845 0 0 Z " fill="#380D63" transform="translate(298,585)"/>
<path d="M0 0 C0 0.66 0 1.32 0 2 C-1.11375 2.309375 -2.2275 2.61875 -3.375 2.9375 C-6.7945155 3.82326483 -6.7945155 3.82326483 -9 5 C-10.95549256 5.12257461 -12.91570618 5.17552388 -14.875 5.1875 C-15.92429687 5.20167969 -16.97359375 5.21585937 -18.0546875 5.23046875 C-20.93547071 5.00504937 -22.56240208 4.48964317 -25 3 C-23.75863281 2.86722656 -22.51726562 2.73445313 -21.23828125 2.59765625 C-19.59634139 2.41938849 -17.95441501 2.24099654 -16.3125 2.0625 C-15.49587891 1.97548828 -14.67925781 1.88847656 -13.83789062 1.79882812 C-9.2683958 1.29932869 -4.56079699 0 0 0 Z " fill="#F2B74F" transform="translate(391,500)"/>
<path d="M0 0 C1.03253906 0.00676758 1.03253906 0.00676758 2.0859375 0.01367188 C3.76566335 0.02533664 5.44534375 0.04326729 7.125 0.0625 C7.125 0.3925 7.125 0.7225 7.125 1.0625 C6.36574219 1.11148437 5.60648437 1.16046875 4.82421875 1.2109375 C3.33341797 1.32308594 3.33341797 1.32308594 1.8125 1.4375 C0.33330078 1.54191406 0.33330078 1.54191406 -1.17578125 1.6484375 C-4.09028433 1.90115472 -4.09028433 1.90115472 -6.875 4.0625 C-9.03125 4.328125 -9.03125 4.328125 -11.375 4.3125 C-12.53515625 4.32023437 -12.53515625 4.32023437 -13.71875 4.328125 C-15.875 4.0625 -15.875 4.0625 -18.875 2.0625 C-17.225 2.0625 -15.575 2.0625 -13.875 2.0625 C-13.875 1.7325 -13.875 1.4025 -13.875 1.0625 C-9.21962644 0.14157719 -4.72814567 -0.05955997 0 0 Z " fill="#59206C" transform="translate(369.875,497.9375)"/>
<path d="M0 0 C4.79077635 -0.28773432 8.00617556 0.55830025 12.375 2.5 C13.43460937 2.9640625 14.49421875 3.428125 15.5859375 3.90625 C16.38257813 4.2671875 17.17921875 4.628125 18 5 C18 5.66 18 6.32 18 7 C17.01 7 16.02 7 15 7 C15 6.34 15 5.68 15 5 C14.12988281 5.05220703 14.12988281 5.05220703 13.2421875 5.10546875 C7.990866 5.28744524 4.60488781 4.83377711 0 2 C0 1.34 0 0.68 0 0 Z " fill="#F5BD58" transform="translate(303,592)"/>
<path d="M0 0 C0.66 0.33 1.32 0.66 2 1 C4.32204928 7.96614783 3.12976011 13.72317843 0.0703125 20.25 C-1 22 -1 22 -3 23 C-2.7834375 22.42894531 -2.566875 21.85789062 -2.34375 21.26953125 C0.12343158 14.08500712 0.31950357 7.54975104 0 0 Z " fill="#E017B5" transform="translate(507,355)"/>
<path d="M0 0 C0.33 0.66 0.66 1.32 1 2 C-2.16589254 7.40839975 -6.17514834 11.04174791 -11 15 C-11.33 14.34 -11.66 13.68 -12 13 C-11.34 13 -10.68 13 -10 13 C-9.71125 12.4225 -9.4225 11.845 -9.125 11.25 C-8.75375 10.5075 -8.3825 9.765 -8 9 C-7.7525 8.360625 -7.505 7.72125 -7.25 7.0625 C-5.38472962 3.98480387 -2.82712454 2.21253224 0 0 Z " fill="#2E0D65" transform="translate(198,299)"/>
<path d="M0 0 C9.9 0 19.8 0 30 0 C30 0.33 30 0.66 30 1 C28.04707031 1.09087891 28.04707031 1.09087891 26.0546875 1.18359375 C24.32811601 1.26804562 22.601554 1.35269126 20.875 1.4375 C20.0190625 1.47681641 19.163125 1.51613281 18.28125 1.55664062 C14.64372343 1.73851695 11.15676212 1.97292291 7.5625 2.59375 C4.44842434 3.08744492 2.78190728 2.39095364 0 1 C0 0.67 0 0.34 0 0 Z " fill="#45126D" transform="translate(354,570)"/>
<path d="M0 0 C0.66 0 1.32 0 2 0 C2 5.28 2 10.56 2 16 C0.68 15.34 -0.64 14.68 -2 14 C-1.34 9.38 -0.68 4.76 0 0 Z " fill="#1C004E" transform="translate(464,556)"/>
<path d="M0 0 C0.66 0.33 1.32 0.66 2 1 C1.67 7.27 1.34 13.54 1 20 C0.34 20 -0.32 20 -1 20 C-1.02888514 16.85418577 -1.04675923 13.70840531 -1.0625 10.5625 C-1.07087891 9.66466797 -1.07925781 8.76683594 -1.08789062 7.84179688 C-1.09111328 6.98779297 -1.09433594 6.13378906 -1.09765625 5.25390625 C-1.10551147 4.06776733 -1.10551147 4.06776733 -1.11352539 2.85766602 C-1 1 -1 1 0 0 Z " fill="#230169" transform="translate(370,100)"/>
<path d="M0 0 C2.0625 0.4375 2.0625 0.4375 4 1 C3.5155542 1.40323486 3.0311084 1.80646973 2.53198242 2.22192383 C0.63082835 4.42847445 0.5848884 5.57032554 0.48828125 8.44921875 C0.45283203 9.29677734 0.41738281 10.14433594 0.38085938 11.01757812 C0.35830078 11.89865234 0.33574219 12.77972656 0.3125 13.6875 C0.27833984 14.58017578 0.24417969 15.47285156 0.20898438 16.39257812 C0.12654352 18.59492671 0.05738449 20.79687938 0 23 C0.66 23 1.32 23 2 23 C2 23.66 2 24.32 2 25 C2.66 25.33 3.32 25.66 4 26 C0.125 25.125 0.125 25.125 -1 24 C-1.09932153 22.30441274 -1.13080007 20.60474253 -1.1328125 18.90625 C-1.13474609 17.36130859 -1.13474609 17.36130859 -1.13671875 15.78515625 C-1.13285156 14.70105469 -1.12898438 13.61695312 -1.125 12.5 C-1.12886719 11.41589844 -1.13273437 10.33179687 -1.13671875 9.21484375 C-1.13542969 8.18488281 -1.13414062 7.15492187 -1.1328125 6.09375 C-1.13168457 5.14177734 -1.13055664 4.18980469 -1.12939453 3.20898438 C-1 1 -1 1 0 0 Z " fill="#411A75" transform="translate(369,97)"/>
<path d="M0 0 C3.63 0 7.26 0 11 0 C11 0.66 11 1.32 11 2 C11.66 2.33 12.32 2.66 13 3 C10.29120665 4.35439668 7.99066732 4.06501451 5 4 C5 3.34 5 2.68 5 2 C3.68 2.33 2.36 2.66 1 3 C0.67 2.01 0.34 1.02 0 0 Z " fill="#FCC864" transform="translate(347,502)"/>
<path d="M0 0 C0.33 0 0.66 0 1 0 C1.042721 1.66611905 1.04063832 3.33382885 1 5 C0 6 0 6 -3.375 6.1875 C-7 6 -7 6 -10 4 C-10 3.34 -10 2.68 -10 2 C-7.03 2 -4.06 2 -1 2 C-0.67 1.34 -0.34 0.68 0 0 Z " fill="#320D75" transform="translate(194,224)"/>
<path d="M0 0 C5.65253308 1.37031105 8.5113541 5.67689413 12 10 C11.34 10.66 10.68 11.32 10 12 C6.08552441 8.27856704 2.50346649 4.85967024 0 0 Z " fill="#36146E" transform="translate(173,434)"/>
<path d="M0 0 C3 1 3 1 4 2 C6.68862664 2.39993686 9.36352217 2.75134543 12.0625 3.0625 C12.82111328 3.15337891 13.57972656 3.24425781 14.36132812 3.33789062 C16.2404301 3.5624374 18.12016095 3.78170978 20 4 C20 4.33 20 4.66 20 5 C13.4 5 6.8 5 0 5 C0 3.35 0 1.7 0 0 Z " fill="#1E0253" transform="translate(164,250)"/>
<path d="M0 0 C1.32 0.33 2.64 0.66 4 1 C4 1.66 4 2.32 4 3 C3.34 3 2.68 3 2 3 C0.26337666 6.22515763 -0.8905928 9.51329166 -2 13 C-2.33 12.01 -2.66 11.02 -3 10 C-3.66 9.67 -4.32 9.34 -5 9 C-4.54625 8.2575 -4.0925 7.515 -3.625 6.75 C-2.31359204 4.53069422 -1.11719197 2.32032178 0 0 Z " fill="#DB19B4" transform="translate(435,347)"/>
<path d="M0 0 C3.32875935 3.64578405 5.0219329 8.21084385 6 13 C5.578125 15.28125 5.578125 15.28125 5 17 C3.08603857 14.00423428 1.74443944 11.47405074 1 8 C0.67 7.67 0.34 7.34 0 7 C-0.04092937 4.66702567 -0.04241723 2.33294775 0 0 Z " fill="#401E74" transform="translate(582,342)"/>
<path d="M0 0 C4.52615993 3.67832017 8.39424999 7.41086363 12 12 C8.47601214 12 7.98495633 11.44884893 5.4375 9.1875 C4.83808594 8.66542969 4.23867188 8.14335937 3.62109375 7.60546875 C2 6 2 6 0 3 C0 2.01 0 1.02 0 0 Z " fill="#301064" transform="translate(557,309)"/>
<path d="M0 0 C2.24973447 -0.054138 4.49984383 -0.09285491 6.75 -0.125 C8.00296875 -0.14820313 9.2559375 -0.17140625 10.546875 -0.1953125 C13.72820492 -0.01537302 15.36521896 0.31001418 18 2 C17.67 2.66 17.34 3.32 17 4 C11.2190275 3.36934845 5.6556294 2.34844868 0 1 C0 0.67 0 0.34 0 0 Z " fill="#48156C" transform="translate(322,597)"/>
<path d="M0 0 C-0.33 0.99 -0.66 1.98 -1 3 C-5.95 3 -10.9 3 -16 3 C-13.2403139 1.16020927 -11.70258118 0.51676779 -8.5625 -0.1875 C-7.41974609 -0.45626953 -7.41974609 -0.45626953 -6.25390625 -0.73046875 C-3.87041504 -1.0154963 -2.26895796 -0.72875415 0 0 Z " fill="#3F1164" transform="translate(437,562)"/>
<path d="M0 0 C0.66 0 1.32 0 2 0 C1.67 5.94 1.34 11.88 1 18 C-1.47599533 14.286007 -1.23739325 12.29282091 -1.1875 7.875 C-1.18105469 6.61429688 -1.17460937 5.35359375 -1.16796875 4.0546875 C-1 1 -1 1 0 0 Z " fill="#1A0147" transform="translate(285,555)"/>
<path d="M0 0 C0.33 0.66 0.66 1.32 1 2 C0.3503125 2.7425 0.3503125 2.7425 -0.3125 3.5 C-2.22585585 6.33460126 -3.09682948 9.03264835 -4.05859375 12.29296875 C-5 14 -5 14 -7.09765625 14.73828125 C-7.72542969 14.82464844 -8.35320312 14.91101563 -9 15 C-7.61219205 11.10993227 -5.7847773 8.03441292 -3.375 4.6875 C-2.74335938 3.80449219 -2.11171875 2.92148437 -1.4609375 2.01171875 C-0.97882813 1.34785156 -0.49671875 0.68398438 0 0 Z " fill="#3C1A6F" transform="translate(172,325)"/>
<path d="M0 0 C0.99 0.33 1.98 0.66 3 1 C2.46890625 1.58007812 1.9378125 2.16015625 1.390625 2.7578125 C-2.44359198 6.99784076 -6.00216242 11.12851393 -9 16 C-9.33 15.01 -9.66 14.02 -10 13 C-8.625 11 -8.625 11 -7 9 C-6.67 8.01 -6.34 7.02 -6 6 C-4.35360035 4.64172029 -2.68704193 3.30745749 -1 2 C-0.67 1.34 -0.34 0.68 0 0 Z " fill="#21015F" transform="translate(179,318)"/>
<path d="M0 0 C4.62 0 9.24 0 14 0 C14 0.66 14 1.32 14 2 C14.66 2.33 15.32 2.66 16 3 C10.39 2.67 4.78 2.34 -1 2 C-0.67 1.34 -0.34 0.68 0 0 Z " fill="#24006D" transform="translate(170,226)"/>
<path d="M0 0 C0.89138672 0.09087891 0.89138672 0.09087891 1.80078125 0.18359375 C8.19699929 0.83017878 14.59671614 1.42784346 21 2 C21 2.33 21 2.66 21 3 C14.98340763 4.0027654 8.98624716 4.48858722 3 3 C1.20703125 1.453125 1.20703125 1.453125 0 0 Z " fill="#EEAF56" transform="translate(336,601)"/>
<path d="M0 0 C-2.94723051 1.96482034 -5.11977826 2.7561217 -8.5 3.6875 C-9.4590625 3.95949219 -10.418125 4.23148438 -11.40625 4.51171875 C-14 5 -14 5 -17 4 C-4.94293478 -1.64764493 -4.94293478 -1.64764493 0 0 Z " fill="#FCC866" transform="translate(429,599)"/>
<path d="M0 0 C-0.99 0.66 -1.98 1.32 -3 2 C-3 2.33 -3 2.66 -3 3 C-6.3 3.33 -9.6 3.66 -13 4 C-13.66 3.01 -14.32 2.02 -15 1 C-13.25215171 0.63536268 -11.50159498 0.2836922 -9.75 -0.0625 C-8.28820312 -0.35833984 -8.28820312 -0.35833984 -6.796875 -0.66015625 C-4.131881 -0.98397535 -2.51128277 -0.85503199 0 0 Z " fill="#441469" transform="translate(419,566)"/>
<path d="M0 0 C2.375 1.4375 2.375 1.4375 4 3 C4 3.66 4 4.32 4 5 C3.34 5 2.68 5 2 5 C2 4.34 2 3.68 2 3 C-4.525434 1.99607024 -4.525434 1.99607024 -11 3 C-7.2151677 -0.95687013 -5.42195674 -1.30126962 0 0 Z " fill="#E336C2" transform="translate(375,48)"/>
<path d="M0 0 C1.65 0 3.3 0 5 0 C4.49855469 0.36738281 3.99710937 0.73476563 3.48046875 1.11328125 C1.315501 3.87232986 1.90874329 5.77392054 2.3125 9.1875 C2.43238281 10.27417969 2.55226563 11.36085938 2.67578125 12.48046875 C2.78277344 13.31191406 2.88976562 14.14335938 3 15 C0.03090402 11.72698081 -0.34354794 9.61934238 -0.1875 5.25 C-0.16042969 4.26515625 -0.13335937 3.2803125 -0.10546875 2.265625 C-0.07066406 1.51796875 -0.03585937 0.7703125 0 0 Z " fill="#1F005C" transform="translate(286,557)"/>
<path d="M0 0 C0.66 0.33 1.32 0.66 2 1 C-2.1689219 4.64780666 -7.44803736 7 -13 7 C-12.67 6.01 -12.34 5.02 -12 4 C-9.78515625 3.0859375 -9.78515625 3.0859375 -7.0625 2.375 C-3.43880225 1.43114402 -3.43880225 1.43114402 0 0 Z " fill="#36116E" transform="translate(562,448)"/>
<path d="M0 0 C0.99 0 1.98 0 3 0 C3 0.99 3 1.98 3 3 C2.01 3 1.02 3 0 3 C0.09539062 3.61488281 0.19078125 4.22976563 0.2890625 4.86328125 C0.39992187 5.67152344 0.51078125 6.47976563 0.625 7.3125 C0.74101562 8.11300781 0.85703125 8.91351562 0.9765625 9.73828125 C1 12 1 12 -1 15 C-1.02685412 12.68756208 -1.04632841 10.3750373 -1.0625 8.0625 C-1.07410156 6.77472656 -1.08570313 5.48695313 -1.09765625 4.16015625 C-1 1 -1 1 0 0 Z " fill="#2B026A" transform="translate(140,621)"/>
<path d="M0 0 C0.33 0.66 0.66 1.32 1 2 C2.31252882 2.70674629 3.65278717 3.36184656 5 4 C7.3473481 5.3096792 9.67160275 6.6566939 12 8 C12 8.33 12 8.66 12 9 C9.19347595 9.5102771 7.51264935 9.33364575 5.109375 7.76953125 C3.25956175 6.24681913 1.54684534 4.83214246 0 3 C0 2.01 0 1.02 0 0 Z " fill="#FDC75A" transform="translate(286,580)"/>
<path d="M0 0 C-6.74637626 3.63266414 -12.45491403 4.26840227 -20 4 C-20 3.67 -20 3.34 -20 3 C-17.60530271 2.49395076 -15.20948283 1.99500483 -12.8125 1.5 C-12.13896484 1.35691406 -11.46542969 1.21382812 -10.77148438 1.06640625 C-7.12490207 0.31930158 -3.72351043 -0.17352282 0 0 Z " fill="#1B004F" transform="translate(430,564)"/>
<path d="M0 0 C-0.55728913 3.34373475 -1.35173889 6.03312999 -3 9 C-3.66 8.67 -4.32 8.34 -5 8 C-4.74438677 5.6568787 -4.40729228 3.32156597 -4 1 C-2 0 -2 0 0 0 Z " fill="#2D0B68" transform="translate(166,339)"/>
<path d="M0 0 C0.74886475 0.00523682 1.49772949 0.01047363 2.26928711 0.01586914 C3.07817383 0.0190918 3.88706055 0.02231445 4.72045898 0.02563477 C5.5705957 0.03401367 6.42073242 0.04239258 7.29663086 0.05102539 C8.15063477 0.05553711 9.00463867 0.06004883 9.88452148 0.06469727 C12.00108749 0.07652166 14.11761771 0.0944577 16.23413086 0.11352539 C16.23413086 0.44352539 16.23413086 0.77352539 16.23413086 1.11352539 C14.53643555 1.15219727 14.53643555 1.15219727 12.80444336 1.19165039 C11.32263342 1.24792165 9.84086409 1.30526921 8.35913086 1.36352539 C7.61276367 1.37770508 6.86639648 1.39188477 6.09741211 1.40649414 C3.66274705 1.4733888 3.66274705 1.4733888 0.23413086 2.11352539 C-1.36924314 4.01981321 -1.36924314 4.01981321 -1.76586914 6.11352539 C-2.14805681 4.45737882 -2.47982016 2.78895515 -2.76586914 1.11352539 C-1.76586914 0.11352539 -1.76586914 0.11352539 0 0 Z " fill="#37106F" transform="translate(164.765869140625,222.886474609375)"/>
<path d="M0 0 C0 6.27 0 12.54 0 19 C-0.33 19 -0.66 19 -1 19 C-1.03738281 17.94039062 -1.07476562 16.88078125 -1.11328125 15.7890625 C-1.17893258 14.40100576 -1.24538021 13.01298651 -1.3125 11.625 C-1.33505859 10.92632813 -1.35761719 10.22765625 -1.38085938 9.5078125 C-1.46984296 7.22711059 -1.46984296 7.22711059 -2 4 C-2.99 3.34 -3.98 2.68 -5 2 C-2 0 -2 0 0 0 Z " fill="#FDCE71" transform="translate(138,623)"/>
<path d="M0 0 C2.35171131 0.59861742 4.6859378 1.26924352 7 2 C7.33 2.66 7.66 3.32 8 4 C2.375 5.125 2.375 5.125 -1 4 C-0.67 2.68 -0.34 1.36 0 0 Z " fill="#E8AF66" transform="translate(301,554)"/>
<path d="M0 0 C3.09592835 3.5087188 4.74194623 6.49197399 6 11 C2.83884224 9.63016497 2.0072908 9.0109362 0 6 C-0.125 2.8125 -0.125 2.8125 0 0 Z " fill="#311067" transform="translate(575,329)"/>
<path d="M0 0 C1.125 1.75 1.125 1.75 2 4 C1.05773345 6.66975522 0.01384202 7.98615798 -2 10 C-3.26066301 6.21801096 -2.42292658 4.63636792 -1 1 C-0.67 0.67 -0.34 0.34 0 0 Z " fill="#230165" transform="translate(160,349)"/>
<path d="M0 0 C1.09570312 0.00902344 2.19140625 0.01804687 3.3203125 0.02734375 C4.16335938 0.03894531 5.00640625 0.05054688 5.875 0.0625 C2.50831849 1.8329101 -0.29709033 2.74350753 -4.125 3.0625 C-6.5 2.125 -6.5 2.125 -8.125 1.0625 C-5.36047967 -0.31976016 -3.0788637 -0.03275387 0 0 Z " fill="#280365" transform="translate(352.125,568.9375)"/>
<path d="M0 0 C0 3 0 3 -1 5 C-2.98 5 -4.96 5 -7 5 C-7.33 4.34 -7.66 3.68 -8 3 C-5.36 2.01 -2.72 1.02 0 0 Z " fill="#EBB15F" transform="translate(400,496)"/>
<path d="M0 0 C3.3 1.65 6.6 3.3 10 5 C10 5.33 10 5.66 10 6 C6.6875 6.25 6.6875 6.25 3 6 C1.0625 4.125 1.0625 4.125 0 2 C0 1.34 0 0.68 0 0 Z " fill="#F3B643" transform="translate(335,493)"/>
<path d="M0 0 C-1.14453125 1.48828125 -1.14453125 1.48828125 -3 3 C-5.69921875 3.29296875 -5.69921875 3.29296875 -8.6875 3.1875 C-9.68136719 3.16042969 -10.67523438 3.13335937 -11.69921875 3.10546875 C-12.45847656 3.07066406 -13.21773438 3.03585937 -14 3 C-14 2.67 -14 2.34 -14 2 C-12.04396149 1.47061343 -10.08507711 0.95173199 -8.125 0.4375 C-7.03445313 0.14746094 -5.94390625 -0.14257812 -4.8203125 -0.44140625 C-2 -1 -2 -1 0 0 Z " fill="#561E69" transform="translate(394,495)"/>
<path d="M0 0 C0 2.97 0 5.94 0 9 C-1.32 8.01 -2.64 7.02 -4 6 C-3.625 3.5625 -3.625 3.5625 -3 1 C-1 0 -1 0 0 0 Z " fill="#1B0054" transform="translate(202,297)"/>
<path d="M0 0 C-0.625 1.875 -0.625 1.875 -2 4 C-5.81058817 5.73961634 -8.03483443 6.19298271 -12 5 C-10.37750059 4.16180842 -8.75191503 3.3295884 -7.125 2.5 C-6.22007812 2.0359375 -5.31515625 1.571875 -4.3828125 1.09375 C-2 0 -2 0 0 0 Z " fill="#E7A747" transform="translate(450,587)"/>
<path d="M0 0 C3.17280351 0.43762807 6.05667611 1.77361505 9 3 C9 3.33 9 3.66 9 4 C1.57142857 4.28571429 1.57142857 4.28571429 -2 2 C-1.34 1.34 -0.68 0.68 0 0 Z " fill="#260369" transform="translate(575,251)"/>
<path d="M0 0 C0.66 0 1.32 0 2 0 C2.33 2.31 2.66 4.62 3 7 C2.01 7 1.02 7 0 7 C-1.125 2.25 -1.125 2.25 0 0 Z " fill="#2D096C" transform="translate(199,449)"/>
<path d="M0 0 C0.66 0 1.32 0 2 0 C2 2.64 2 5.28 2 8 C1.01 8 0.02 8 -1 8 C-0.67 5.36 -0.34 2.72 0 0 Z " fill="#29056C" transform="translate(157,391)"/>
<path d="M0 0 C0.66 0 1.32 0 2 0 C1.67 0.99 1.34 1.98 1 3 C0.34 3 -0.32 3 -1 3 C-1.2475 3.598125 -1.495 4.19625 -1.75 4.8125 C-3.16370012 7.28647521 -4.65055383 8.43370255 -7 10 C-7.66 9.67 -8.32 9.34 -9 9 C-7.6078125 7.88625 -7.6078125 7.88625 -6.1875 6.75 C-3.71061648 4.70438561 -1.913529 2.58326416 0 0 Z " fill="#FAB457" transform="translate(343,374)"/>
<path d="M0 0 C3.3 0.33 6.6 0.66 10 1 C10 1.33 10 1.66 10 2 C9.21625 2.144375 8.4325 2.28875 7.625 2.4375 C5.03578982 2.87798925 5.03578982 2.87798925 3 4 C0.875 3.0625 0.875 3.0625 -1 2 C-0.67 1.34 -0.34 0.68 0 0 Z " fill="#30046D" transform="translate(352,497)"/>
<path d="M0 0 C5.875 3.75 5.875 3.75 7 6 C4.03 5.505 4.03 5.505 1 5 C0.67 3.35 0.34 1.7 0 0 Z " fill="#361469" transform="translate(548,300)"/>
<path d="M0 0 C0.99 1.485 0.99 1.485 2 3 C2.556875 3.639375 3.11375 4.27875 3.6875 4.9375 C5 7 5 7 4.6875 9.25 C4.460625 9.8275 4.23375 10.405 4 11 C4 10.34 4 9.68 4 9 C3.01 8.67 2.02 8.34 1 8 C0.67 5.36 0.34 2.72 0 0 Z " fill="#F0AF3D" transform="translate(283,571)"/>
<path d="M0 0 C-0.99 0.495 -0.99 0.495 -2 1 C-2 1.66 -2 2.32 -2 3 C-4.31 3 -6.62 3 -9 3 C-9 2.34 -9 1.68 -9 1 C-5.8035914 -0.06546953 -3.34252724 -0.07427838 0 0 Z " fill="#1C0057" transform="translate(408,568)"/>
<path d="M0 0 C1.98 0.495 1.98 0.495 4 1 C4 2.65 4 4.3 4 6 C1.525 5.01 1.525 5.01 -1 4 C-0.67 2.68 -0.34 1.36 0 0 Z " fill="#4D1670" transform="translate(334,488)"/>
<path d="M0 0 C1.65 0.33 3.3 0.66 5 1 C2.14693203 3.32472205 -0.54074837 4.7508258 -4 6 C-4 5.01 -4 4.02 -4 3 C-2.68 3 -1.36 3 0 3 C0 2.01 0 1.02 0 0 Z " fill="#EFB359" transform="translate(402,486)"/>
<path d="M0 0 C0.66 0.33 1.32 0.66 2 1 C2 1.66 2 2.32 2 3 C1.34 3 0.68 3 0 3 C-0.33 4.32 -0.66 5.64 -1 7 C-2.32 6.67 -3.64 6.34 -5 6 C-3.35 4.02 -1.7 2.04 0 0 Z " fill="#F4B23B" transform="translate(467,571)"/>
<path d="M0 0 C0 0.99 0 1.98 0 3 C-2.64 3 -5.28 3 -8 3 C-5.53387212 -0.1151089 -3.89156016 -0.31553191 0 0 Z " fill="#2A0069" transform="translate(371,499)"/>
<path d="M0 0 C4.875 4.625 4.875 4.625 6 8 C3.5625 7.375 3.5625 7.375 1 6 C0.1875 2.875 0.1875 2.875 0 0 Z " fill="#35156A" transform="translate(569,321)"/>
<path d="M0 0 C0.66 0.33 1.32 0.66 2 1 C0.12050295 4.57104439 -1.17053157 6.54744301 -5 8 C-5 7.34 -5 6.68 -5 6 C-4.34 6 -3.68 6 -3 6 C-2.690625 5.38125 -2.38125 4.7625 -2.0625 4.125 C-1.375 2.75 -0.6875 1.375 0 0 Z " fill="#20015F" transform="translate(191,306)"/>
<path d="M0 0 C2 1.375 2 1.375 4 3 C4 3.66 4 4.32 4 5 C4.66 5 5.32 5 6 5 C5.67 5.66 5.34 6.32 5 7 C3.02 5.68 1.04 4.36 -1 3 C-0.67 2.01 -0.34 1.02 0 0 Z " fill="#46185E" transform="translate(291,579)"/>
<path d="M0 0 C1.65 0 3.3 0 5 0 C5 0.99 5 1.98 5 3 C3.02 3 1.04 3 -1 3 C-0.67 2.01 -0.34 1.02 0 0 Z " fill="#1E0052" transform="translate(394,494)"/>
<path d="M0 0 C2.125 0.9375 2.125 0.9375 4 2 C4 2.66 4 3.32 4 4 C1.03 3.505 1.03 3.505 -2 3 C-2 2.34 -2 1.68 -2 1 C-1.34 0.67 -0.68 0.34 0 0 Z " fill="#320B62" transform="translate(319,593)"/>
<path d="M0 0 C5.75 -0.125 5.75 -0.125 8 1 C8 1.66 8 2.32 8 3 C5.6568787 2.74438677 3.32156597 2.40729228 1 2 C0.67 1.34 0.34 0.68 0 0 Z " fill="#1D0056" transform="translate(314,563)"/>
<path d="M0 0 C3.26954202 0.56371414 4.82575883 1.49962266 7 4 C6.01 4.495 6.01 4.495 5 5 C2.375 3.6875 2.375 3.6875 0 2 C0 1.34 0 0.68 0 0 Z " fill="#37156F" transform="translate(187,447)"/>
<path d="M0 0 C1.98 1.65 3.96 3.3 6 5 C5.34 5.66 4.68 6.32 4 7 C2 5.1875 2 5.1875 0 3 C0 2.01 0 1.02 0 0 Z " fill="#290862" transform="translate(557,309)"/>
</svg>
